<?xml version="1.0" encoding="UTF-8" standalone="no"?>
<!DOCTYPE svg PUBLIC "-//W3C//DTD SVG 1.1//EN" "http://www.w3.org/Graphics/SVG/1.1/DTD/svg11.dtd">
<svg version="1.1" xmlns="http://www.w3.org/2000/svg" xmlns:xlink="http://www.w3.org/1999/xlink" preserveAspectRatio="xMidYMid meet" viewBox="0 0 640 192" width="640" height="192"><defs><path d="M621.6 192C561.39 192 79.67 192 19.46 192C9.29 192 1.04 183.39 1.04 172.75C1.04 157.41 1.04 34.62 1.04 19.27C1.04 8.64 9.29 0 19.46 0C79.67 0 561.38 0 621.6 0C631.77 0 640 8.64 640 19.27C640 29.5 640 80.66 640 172.75L640 172.75C634.52 185.58 628.38 192 621.6 192Z" id="clwmeR3xM"></path><path d="M621.6 192C561.39 192 79.67 192 19.46 192C9.29 192 1.04 183.39 1.04 172.75C1.04 157.41 1.04 34.62 1.04 19.27C1.04 8.64 9.29 0 19.46 0C79.67 0 561.38 0 621.6 0C631.77 0 640 8.64 640 19.27C640 29.5 640 80.66 640 172.75L640 172.75C634.52 185.58 628.38 192 621.6 192Z" id="b1dlvsf50e"></path><path d="M154.6 70.5C147.35 59.43 136.11 57.92 132.16 57.8C122.72 56.76 113.57 63.71 108.76 63.71C103.85 63.71 96.45 57.9 88.47 58.07C78.2 58.24 68.59 64.46 63.32 74.13C52.44 93.84 60.55 122.81 70.97 138.75C76.19 146.56 82.28 155.27 90.25 154.96C98.05 154.63 100.96 149.76 110.37 149.76C119.69 149.76 122.43 154.96 130.56 154.76C138.93 154.63 144.2 146.92 149.23 139.05C155.25 130.11 157.67 121.3 157.77 120.84C157.57 120.77 141.52 114.35 141.35 94.94C141.21 78.75 154.02 70.87 154.6 70.5Z" id="a35Bq0mfH1"></path><path d="M132.26 26.77C126.19 27.05 118.6 31.17 114.23 36.54C110.36 41.27 106.9 49.03 107.8 56.33C114.62 56.86 121.62 52.72 126 47.32C130.19 41.82 133.06 34.35 132.26 26.77Z" id="i8JTKCinX"></path><path d="M243.41 153.84L237.44 134.2L216.69 134.2L211 153.84L200.39 153.84L220.96 86.96L233.65 86.96L254.31 153.84L243.41 153.84ZM230.24 108.49C229.67 106.71 228.6 102.51 227.02 95.89C227 95.89 226.85 95.89 226.83 95.89C226.2 98.74 225.18 102.94 223.8 108.49C223.44 109.66 221.67 115.48 218.49 125.95L235.64 125.95C232.4 115.48 230.6 109.66 230.24 108.49Z" id="aX8qSCWrD"></path><path d="M300.71 148.58C296.9 152.81 292.16 154.93 286.51 154.93C280.41 154.93 276.03 152.65 273.36 148.09C273.36 149.78 273.36 158.21 273.36 173.39L263.13 173.39C263.13 142.24 263.13 124.93 263.13 121.47C263.13 116.32 263 111.04 262.75 105.62C263.35 105.62 266.35 105.62 271.75 105.62L272.32 113.26C272.44 113.26 272.5 113.26 272.51 113.26C275.92 107.5 281.1 104.62 288.05 104.62C293.48 104.62 298.02 106.87 301.65 111.37C305.27 115.87 307.09 121.79 307.09 129.14C307.09 137.34 304.96 143.82 300.71 148.58ZM293.63 117.91C291.42 114.74 288.45 113.16 284.73 113.16C282.2 113.16 279.91 114.04 277.86 115.78C275.8 117.54 274.46 119.84 273.83 122.68C273.52 124.01 273.36 125.09 273.36 125.94C273.36 126.75 273.36 133.19 273.36 133.99C273.36 137.49 274.38 140.45 276.44 142.87C278.49 145.29 281.16 146.5 284.44 146.5C288.3 146.5 291.3 144.93 293.44 141.83C295.59 138.72 296.67 134.62 296.67 129.53C296.67 124.83 295.66 120.96 293.63 117.91Z" id="b48qNvn1UU"></path><path d="M353.67 148.58C349.86 152.81 345.13 154.93 339.47 154.93C333.37 154.93 328.99 152.65 326.32 148.09C326.32 149.78 326.32 158.21 326.32 173.39L316.09 173.39C316.09 142.24 316.09 124.93 316.09 121.47C316.09 116.32 315.96 111.04 315.71 105.62C316.31 105.62 319.31 105.62 324.71 105.62L325.28 113.26C325.4 113.26 325.46 113.26 325.48 113.26C328.88 107.5 334.06 104.62 341.01 104.62C346.44 104.62 350.98 106.87 354.62 111.37C358.23 115.87 360.06 121.79 360.06 129.14C360.06 137.34 357.93 143.82 353.67 148.58ZM346.59 117.91C344.38 114.74 341.42 113.16 337.69 113.16C335.17 113.16 332.88 114.04 330.82 115.78C328.76 117.54 327.42 119.84 326.8 122.68C326.48 124.01 326.32 125.09 326.32 125.94C326.32 126.75 326.32 133.19 326.32 133.99C326.32 137.49 327.35 140.45 329.39 142.87C331.45 145.28 334.11 146.5 337.41 146.5C341.26 146.5 344.26 144.93 346.4 141.83C348.55 138.72 349.63 134.62 349.63 129.53C349.63 124.83 348.62 120.96 346.59 117.91Z" id="dDFu4Y65J"></path><path d="M413.6 148.97C409.45 152.87 403.64 154.83 396.2 154.83C389.33 154.83 383.82 153.44 379.67 150.66C379.9 149.77 381.8 142.63 382.03 141.73C386.52 144.52 391.45 145.9 396.81 145.9C400.67 145.9 403.67 144.99 405.81 143.18C407.96 141.36 409.04 138.92 409.04 135.89C409.04 133.17 408.14 130.89 406.38 129.04C404.61 127.19 401.69 125.47 397.57 123.88C386.39 119.52 380.79 113.13 380.79 104.73C380.79 99.24 382.77 94.75 386.72 91.24C390.66 87.73 395.89 85.97 402.4 85.97C408.21 85.97 413.05 87.04 416.9 89.15C416.64 90.02 414.59 97.01 414.33 97.88C410.71 95.83 406.63 94.81 402.06 94.81C398.45 94.81 395.62 95.74 393.59 97.59C391.89 99.24 391.03 101.26 391.03 103.65C391.03 106.29 392.01 108.48 393.97 110.2C395.67 111.78 398.77 113.5 403.25 115.35C408.75 117.67 412.79 120.38 415.38 123.48C417.98 126.59 419.28 130.46 419.28 135.08C419.28 140.77 417.38 145.4 413.6 148.97Z" id="e4jmDrhdT"></path><path d="M441.92 113.66C441.92 127.71 441.92 135.51 441.92 137.07C441.92 143.03 443.9 145.99 447.89 145.99C449.71 145.99 451.23 145.83 452.43 145.5C452.46 146.31 452.69 152.82 452.71 153.63C450.7 154.42 448.04 154.82 444.76 154.82C440.72 154.82 437.56 153.53 435.28 150.94C433.01 148.36 431.87 144.04 431.87 137.94C431.87 136.32 431.87 128.22 431.87 113.64L425.15 113.64L425.15 105.6L431.87 105.6L431.87 96.77L441.92 93.59L441.92 105.6L453.19 105.6L453.19 113.66L441.92 113.66Z" id="d11hQuhQBm"></path><path d="M497.91 147.59C493.68 152.49 488.06 154.93 481.05 154.93C474.28 154.93 468.9 152.58 464.89 147.89C460.88 143.2 458.87 137.28 458.87 130.14C458.87 122.66 460.94 116.54 465.08 111.78C469.22 107.02 474.8 104.64 481.81 104.64C488.56 104.64 493.99 106.99 498.1 111.68C502.03 116.24 503.98 122.12 503.98 129.33C503.98 136.74 501.95 142.83 497.91 147.59ZM490.63 118.2C488.49 114.37 485.42 112.46 481.44 112.46C477.34 112.46 474.2 114.37 472.05 118.2C470.22 121.37 469.31 125.23 469.31 129.78C469.31 134.2 470.22 138 472.05 141.16C474.27 144.99 477.35 146.9 481.35 146.9C485.26 146.9 488.33 144.95 490.55 141.07C492.43 137.82 493.37 134.01 493.37 129.58C493.37 125.16 492.46 121.37 490.63 118.2Z" id="aqUfD4jnP"></path><path d="M534.03 114.74C530.43 114.74 527.64 116.16 525.68 119.02C523.99 121.53 523.13 124.7 523.13 128.54C523.13 130.22 523.13 138.66 523.13 153.84L512.9 153.84C512.9 134.02 512.9 123.01 512.9 120.8C512.9 115.25 512.8 110.19 512.6 105.62C513.2 105.62 516.17 105.62 521.51 105.62L521.89 114.85C522.06 114.85 522.15 114.85 522.17 114.85C523.26 111.68 524.96 109.12 527.29 107.21C529.57 105.48 532.03 104.62 534.68 104.62C535.63 104.62 536.48 104.69 537.24 104.82C537.24 105.5 537.25 108.91 537.25 115.04L537.25 115.04C535.85 114.84 534.78 114.74 534.03 114.74Z" id="fbbDMalvc"></path><path d="M582.64 132.31C579.57 132.31 555.01 132.31 551.94 132.31C552.06 137.07 553.54 140.72 556.39 143.23C558.98 145.47 562.33 146.6 566.43 146.6C570.98 146.6 575.13 145.84 578.85 144.32C579.01 145.06 580.3 151.01 580.46 151.75C576.1 153.74 570.96 154.73 565.02 154.73C557.88 154.73 552.27 152.53 548.19 148.14C544.12 143.74 542.08 137.83 542.08 130.43C542.08 123.17 543.98 117.11 547.78 112.28C551.75 107.13 557.12 104.55 563.88 104.55C570.51 104.55 575.54 107.13 578.95 112.28C581.65 116.37 583.01 121.43 583.01 127.45C583.01 129.37 582.89 130.98 582.64 132.31ZM571.27 116.43C569.5 113.45 566.77 111.96 563.12 111.96C559.77 111.96 557.05 113.41 554.97 116.33C553.27 118.64 552.26 121.43 551.95 124.66C553.37 124.66 560.47 124.66 573.25 124.67L573.25 124.67C572.85 120.72 572.19 117.98 571.27 116.43Z" id="c8FIAqHdy9"></path><path d="M225.35 63.03L222.41 53.38L212.22 53.38L209.42 63.03L204.2 63.03L214.31 30.16L220.55 30.16L230.71 63.03L225.35 63.03ZM218.88 40.74C218.6 39.86 218.09 37.82 217.29 34.55C217.28 34.55 217.21 34.55 217.2 34.55C216.87 35.96 216.41 38.02 215.71 40.74C215.53 41.32 214.66 44.18 213.1 49.33L221.53 49.33C219.94 44.18 219.05 41.32 218.88 40.74Z" id="b2MYp229ip"></path><path d="M247.41 63.03L242.52 63.03L234.22 39.33L239.63 39.33C241.95 46.85 243.24 51.03 243.5 51.86C244.15 53.96 244.71 55.96 245.12 57.86C245.14 57.86 245.25 57.86 245.26 57.86C245.64 56.16 246.19 54.16 246.89 51.86C247.14 51.03 248.42 46.85 250.71 39.33L255.98 39.33L247.41 63.03Z" id="a2Jvdagas6"></path><path d="M273.85 60.3C273.77 60.3 273.72 60.3 273.71 60.3C272.18 62.5 269.94 63.57 267.1 63.57C263.05 63.57 260.16 60.59 260.16 56.59C260.16 50.74 265 47.72 273.39 47.72C273.39 47.67 273.39 47.33 273.39 47.28C273.39 44.16 271.8 42.6 268.68 42.6C266.45 42.6 264.49 43.19 262.77 44.36C262.67 44.01 261.85 41.24 261.75 40.89C263.85 39.53 266.45 38.84 269.53 38.84C275.44 38.84 278.42 42.11 278.42 48.65C278.42 49.52 278.42 56.5 278.42 57.38C278.42 59.77 278.52 61.62 278.75 63.04C278.45 63.03 276.94 63.03 274.23 63.03L274.23 63.03L273.85 60.3ZM265.14 56.01C265.14 58.49 266.59 59.71 268.59 59.71C271.15 59.71 273.52 57.66 273.52 54.88C273.52 54.64 273.52 53.42 273.52 51.23C267.94 52.17 265.14 53.76 265.14 56.01Z" id="bzLZ0fP42"></path><path d="M286.65 32.26C286.65 30.45 287.99 29.14 289.72 29.14C291.44 29.14 292.84 30.45 292.79 32.26C292.79 34.16 291.49 35.43 289.63 35.43C287.95 35.43 286.65 34.06 286.65 32.26ZM287.21 63.03L287.21 39.33L292.24 39.33L292.24 63.03L287.21 63.03Z" id="a5Do43C5SK"></path><path d="M301.17 63.03L301.17 28.46L306.2 28.46L306.2 63.03L301.17 63.03Z" id="ahqeX8Put"></path><path d="M327.2 60.3C327.12 60.3 327.07 60.3 327.06 60.3C325.53 62.5 323.29 63.57 320.45 63.57C316.4 63.57 313.51 60.59 313.51 56.59C313.51 50.74 318.35 47.72 326.74 47.72C326.74 47.67 326.74 47.33 326.74 47.28C326.74 44.16 325.15 42.6 322.03 42.6C319.8 42.6 317.84 43.19 316.12 44.36C316.02 44.01 315.2 41.24 315.09 40.89C317.19 39.52 319.8 38.84 322.87 38.84C328.79 38.84 331.77 42.11 331.77 48.64C331.77 49.52 331.77 56.5 331.77 57.37C331.77 59.76 331.87 61.62 332.09 63.03C331.79 63.03 330.29 63.03 327.58 63.03L327.2 60.3ZM318.49 56.01C318.49 58.49 319.94 59.71 321.94 59.71C324.5 59.71 326.88 57.66 326.88 54.88C326.88 54.64 326.88 53.42 326.88 51.23C321.29 52.17 318.49 53.76 318.49 56.01Z" id="a15OVYX77g"></path><path d="M345.03 59.37C345.03 59.37 344.99 59.37 344.93 59.37L344.64 63.03C342.07 63.03 340.64 63.03 340.36 63.03C340.5 61.13 340.54 58.98 340.54 56.64C340.54 54.76 340.54 45.37 340.54 28.46L345.58 28.46L345.58 42.8C345.64 42.8 345.67 42.8 345.67 42.8C347.17 40.17 349.58 38.85 352.89 38.85C358.34 38.85 362.16 43.73 362.16 50.84C362.16 58.2 357.92 63.57 352.15 63.57C348.94 63.57 346.57 62.15 345.03 59.37ZM345.58 49.28C345.58 49.69 345.58 53.01 345.58 53.42C345.58 56.69 347.96 59.37 351.04 59.37C354.81 59.37 357.05 56.16 357.05 51.04C357.04 46.26 354.71 42.98 351.13 42.98C348.23 42.98 345.58 45.62 345.58 49.28Z" id="aopBuzlJF"></path><path d="M369.6 63.03L369.6 28.46L374.63 28.46L374.63 63.03L369.6 63.03Z" id="ab2xFXMYE"></path><path d="M386.91 52.45C387.01 56.93 389.84 59.47 394.04 59.47C396.27 59.47 398.32 59.08 400.14 58.35C400.21 58.71 400.84 61.64 400.92 62.01C398.78 62.98 396.26 63.47 393.33 63.47C386.25 63.47 382.06 58.78 382.06 51.52C382.06 44.26 386.35 38.79 392.76 38.79C398.54 38.79 402.17 43.28 402.17 50.06C402.19 50.98 402.15 51.81 402.01 52.45C398.99 52.45 388.42 52.45 386.91 52.45ZM392.41 42.45C389.52 42.45 387.24 45.09 386.91 48.69C387.61 48.69 391.1 48.69 397.39 48.69C396.21 44.53 394.55 42.45 392.41 42.45Z" id="f88F9NZoo"></path><path d="M421.59 51.38C421.59 44.06 425.97 38.84 432.87 38.84C439.38 38.84 443.77 43.77 443.77 50.99C443.77 58.4 439.25 63.57 432.49 63.57C425.88 63.57 421.59 58.4 421.59 51.38ZM426.72 51.23C426.72 56.11 429.1 59.66 432.63 59.66C436.17 59.66 438.54 55.86 438.54 51.13C438.55 46.3 436.22 42.69 432.68 42.69C429.05 42.69 426.72 46.25 426.72 51.23Z" id="cCu0JBPt8"></path><path d="M465.78 63.03C465.78 54.87 465.78 50.33 465.78 49.42C465.78 45.23 464.25 43.13 461.22 43.13C458.24 43.13 456.18 45.81 456.18 48.93C456.18 49.87 456.18 54.57 456.18 63.03L451.16 63.03C451.16 52.88 451.16 47.23 451.16 46.11C451.16 44.01 451.11 41.76 450.97 39.33C451.27 39.33 452.74 39.33 455.4 39.33L455.63 42.98C455.72 42.98 455.76 42.98 455.77 42.98C457.12 40.45 459.87 38.84 462.94 38.84C467.69 38.84 470.81 42.64 470.81 48.83C470.81 49.78 470.81 54.51 470.81 63.03L470.81 63.03L465.78 63.03Z" id="c1dXss9OWw"></path><path d="M498.18 43.28C498.18 50.19 498.18 54.02 498.18 54.79C498.18 57.72 499.16 59.18 501.11 59.18C502 59.18 502.75 59.08 503.35 58.93C503.36 59.33 503.47 62.53 503.48 62.93C502.51 63.33 501.2 63.52 499.58 63.52C495.61 63.52 493.25 61.23 493.25 55.23C493.25 54.43 493.25 50.45 493.25 43.28L489.95 43.28L489.95 39.33L493.25 39.33L493.25 34.99L498.18 33.43L498.18 39.33L503.71 39.33L503.71 43.28L498.18 43.28Z" id="eU4muNoc7"></path><path d="M525.32 63.03C525.32 54.93 525.32 50.42 525.32 49.52C525.32 45.28 523.78 43.14 520.75 43.14C518.15 43.14 515.73 44.99 515.73 48.74C515.73 49.7 515.73 54.46 515.73 63.03L510.69 63.03L510.69 28.46L515.73 28.46L515.73 42.69C515.78 42.69 515.82 42.69 515.82 42.69C517.41 40.11 519.69 38.84 522.62 38.84C527.42 38.84 530.35 42.74 530.35 48.93C530.35 49.87 530.35 54.57 530.35 63.03L525.32 63.03Z" id="h83cOaYEOB"></path><path d="M540.96 52.45C541.05 56.93 543.88 59.47 548.08 59.47C550.32 59.47 552.36 59.08 554.18 58.35C554.26 58.71 554.89 61.64 554.96 62.01C552.82 62.98 550.3 63.47 547.37 63.47C540.29 63.47 536.1 58.78 536.1 51.52C536.1 44.26 540.39 38.79 546.81 38.79C552.58 38.79 556.22 43.28 556.22 50.06C556.24 50.98 556.19 51.81 556.05 52.45C553.03 52.45 542.47 52.45 540.96 52.45ZM546.46 42.45C543.56 42.45 541.29 45.09 540.96 48.69C541.65 48.69 545.15 48.69 551.44 48.69C550.26 44.53 548.6 42.45 546.46 42.45Z" id="a3i134d2jj"></path></defs><g><g><g><use xlink:href="#clwmeR3xM" opacity="1" fill="#ffffff" fill-opacity="1"></use><g><use xlink:href="#clwmeR3xM" opacity="1" fill-opacity="0" stroke="#000000" stroke-width="1" stroke-opacity="0"></use></g></g><g><use xlink:href="#b1dlvsf50e" opacity="1" fill="#0953ff" fill-opacity="1"></use><g><use xlink:href="#b1dlvsf50e" opacity="1" fill-opacity="0" stroke="#000000" stroke-width="1" stroke-opacity="0"></use></g></g><g><use xlink:href="#a35Bq0mfH1" opacity="1" fill="#ffffff" fill-opacity="1"></use><g><use xlink:href="#a35Bq0mfH1" opacity="1" fill-opacity="0" stroke="#000000" stroke-width="1" stroke-opacity="0"></use></g></g><g><use xlink:href="#i8JTKCinX" opacity="1" fill="#ffffff" fill-opacity="1"></use><g><use xlink:href="#i8JTKCinX" opacity="1" fill-opacity="0" stroke="#000000" stroke-width="1" stroke-opacity="0"></use></g></g><g><use xlink:href="#aX8qSCWrD" opacity="1" fill="#ffffff" fill-opacity="1"></use><g><use xlink:href="#aX8qSCWrD" opacity="1" fill-opacity="0" stroke="#000000" stroke-width="1" stroke-opacity="0"></use></g></g><g><use xlink:href="#b48qNvn1UU" opacity="1" fill="#ffffff" fill-opacity="1"></use><g><use xlink:href="#b48qNvn1UU" opacity="1" fill-opacity="0" stroke="#000000" stroke-width="1" stroke-opacity="0"></use></g></g><g><use xlink:href="#dDFu4Y65J" opacity="1" fill="#ffffff" fill-opacity="1"></use><g><use xlink:href="#dDFu4Y65J" opacity="1" fill-opacity="0" stroke="#000000" stroke-width="1" stroke-opacity="0"></use></g></g><g><use xlink:href="#e4jmDrhdT" opacity="1" fill="#ffffff" fill-opacity="1"></use><g><use xlink:href="#e4jmDrhdT" opacity="1" fill-opacity="0" stroke="#000000" stroke-width="1" stroke-opacity="0"></use></g></g><g><use xlink:href="#d11hQuhQBm" opacity="1" fill="#ffffff" fill-opacity="1"></use><g><use xlink:href="#d11hQuhQBm" opacity="1" fill-opacity="0" stroke="#000000" stroke-width="1" stroke-opacity="0"></use></g></g><g><use xlink:href="#aqUfD4jnP" opacity="1" fill="#ffffff" fill-opacity="1"></use><g><use xlink:href="#aqUfD4jnP" opacity="1" fill-opacity="0" stroke="#000000" stroke-width="1" stroke-opacity="0"></use></g></g><g><use xlink:href="#fbbDMalvc" opacity="1" fill="#ffffff" fill-opacity="1"></use><g><use xlink:href="#fbbDMalvc" opacity="1" fill-opacity="0" stroke="#000000" stroke-width="1" stroke-opacity="0"></use></g></g><g><use xlink:href="#c8FIAqHdy9" opacity="1" fill="#ffffff" fill-opacity="1"></use><g><use xlink:href="#c8FIAqHdy9" opacity="1" fill-opacity="0" stroke="#000000" stroke-width="1" stroke-opacity="0"></use></g></g><g><use xlink:href="#b2MYp229ip" opacity="1" fill="#ffffff" fill-opacity="1"></use><g><use xlink:href="#b2MYp229ip" opacity="1" fill-opacity="0" stroke="#000000" stroke-width="1" stroke-opacity="0"></use></g></g><g><use xlink:href="#a2Jvdagas6" opacity="1" fill="#ffffff" fill-opacity="1"></use><g><use xlink:href="#a2Jvdagas6" opacity="1" fill-opacity="0" stroke="#000000" stroke-width="1" stroke-opacity="0"></use></g></g><g><use xlink:href="#bzLZ0fP42" opacity="1" fill="#ffffff" fill-opacity="1"></use><g><use xlink:href="#bzLZ0fP42" opacity="1" fill-opacity="0" stroke="#000000" stroke-width="1" stroke-opacity="0"></use></g></g><g><use xlink:href="#a5Do43C5SK" opacity="1" fill="#ffffff" fill-opacity="1"></use><g><use xlink:href="#a5Do43C5SK" opacity="1" fill-opacity="0" stroke="#000000" stroke-width="1" stroke-opacity="0"></use></g></g><g><use xlink:href="#ahqeX8Put" opacity="1" fill="#ffffff" fill-opacity="1"></use><g><use xlink:href="#ahqeX8Put" opacity="1" fill-opacity="0" stroke="#000000" stroke-width="1" stroke-opacity="0"></use></g></g><g><use xlink:href="#a15OVYX77g" opacity="1" fill="#ffffff" fill-opacity="1"></use><g><use xlink:href="#a15OVYX77g" opacity="1" fill-opacity="0" stroke="#000000" stroke-width="1" stroke-opacity="0"></use></g></g><g><use xlink:href="#aopBuzlJF" opacity="1" fill="#ffffff" fill-opacity="1"></use><g><use xlink:href="#aopBuzlJF" opacity="1" fill-opacity="0" stroke="#000000" stroke-width="1" stroke-opacity="0"></use></g></g><g><use xlink:href="#ab2xFXMYE" opacity="1" fill="#ffffff" fill-opacity="1"></use><g><use xlink:href="#ab2xFXMYE" opacity="1" fill-opacity="0" stroke="#000000" stroke-width="1" stroke-opacity="0"></use></g></g><g><use xlink:href="#f88F9NZoo" opacity="1" fill="#ffffff" fill-opacity="1"></use><g><use xlink:href="#f88F9NZoo" opacity="1" fill-opacity="0" stroke="#000000" stroke-width="1" stroke-opacity="0"></use></g></g><g><use xlink:href="#cCu0JBPt8" opacity="1" fill="#ffffff" fill-opacity="1"></use><g><use xlink:href="#cCu0JBPt8" opacity="1" fill-opacity="0" stroke="#000000" stroke-width="1" stroke-opacity="0"></use></g></g><g><use xlink:href="#c1dXss9OWw" opacity="1" fill="#ffffff" fill-opacity="1"></use><g><use xlink:href="#c1dXss9OWw" opacity="1" fill-opacity="0" stroke="#000000" stroke-width="1" stroke-opacity="0"></use></g></g><g><use xlink:href="#eU4muNoc7" opacity="1" fill="#ffffff" fill-opacity="1"></use><g><use xlink:href="#eU4muNoc7" opacity="1" fill-opacity="0" stroke="#000000" stroke-width="1" stroke-opacity="0"></use></g></g><g><use xlink:href="#h83cOaYEOB" opacity="1" fill="#ffffff" fill-opacity="1"></use><g><use xlink:href="#h83cOaYEOB" opacity="1" fill-opacity="0" stroke="#000000" stroke-width="1" stroke-opacity="0"></use></g></g><g><use xlink:href="#a3i134d2jj" opacity="1" fill="#ffffff" fill-opacity="1"></use><g><use xlink:href="#a3i134d2jj" opacity="1" fill-opacity="0" stroke="#000000" stroke-width="1" stroke-opacity="0"></use></g></g></g></g></svg>