<?xml version="1.0" encoding="UTF-8" standalone="no"?>
<!DOCTYPE svg PUBLIC "-//W3C//DTD SVG 1.1//EN" "http://www.w3.org/Graphics/SVG/1.1/DTD/svg11.dtd">
<svg version="1.1" xmlns="http://www.w3.org/2000/svg" xmlns:xlink="http://www.w3.org/1999/xlink" preserveAspectRatio="xMidYMid meet" viewBox="0 0 640 192" width="640" height="192"><defs><path d="M23.71 190.43C10.64 190.43 0 179.78 0 166.82C0 152.66 0 39.34 0 25.18C0 12.17 10.64 1.57 23.71 1.57C82.97 1.57 557.03 1.57 616.29 1.57C629.34 1.57 640 12.17 640 25.18C640 39.34 640 152.66 640 166.82C640 179.78 629.34 190.43 616.29 190.43C497.77 190.43 82.97 190.43 23.71 190.43Z" id="advMTbEmA"></path><path d="M329.43 59.61C326.6 56.75 325.03 52.8 325.1 48.78C325.1 44.48 326.56 40.84 329.43 37.96C332.27 35.01 335.87 33.52 340.14 33.52C344.37 33.52 347.97 35.01 350.87 37.96C353.74 40.93 355.2 44.57 355.2 48.78C355.15 53.08 353.69 56.72 350.87 59.6C348.03 62.56 344.43 64.05 340.15 64.05C335.88 64.05 332.28 62.55 329.43 59.61ZM202.21 59.67C199.27 56.77 197.77 53.11 197.77 48.79C197.77 44.47 199.27 40.8 202.21 37.91C205.12 35 208.75 33.53 212.99 33.53C215.06 33.53 217.07 33.94 219 34.78C220.9 35.59 222.44 36.7 223.58 38.05C223.6 38.07 223.7 38.19 223.86 38.39L220.67 41.52C220.48 41.29 220.37 41.16 220.34 41.13C218.54 38.99 216.13 37.94 212.94 37.94C210.09 37.94 207.61 38.96 205.56 40.96C203.5 42.97 202.45 45.61 202.45 48.8C202.45 51.99 203.5 54.63 205.56 56.64C207.61 58.64 210.09 59.65 212.94 59.65C215.98 59.65 218.53 58.64 220.52 56.64C221.7 55.46 222.43 53.81 222.69 51.73C222.01 51.73 218.59 51.73 212.46 51.73L212.46 47.33L227.08 47.33C227.11 47.57 227.13 47.7 227.14 47.73C227.24 48.47 227.35 49.23 227.35 49.94C227.35 54 226.13 57.29 223.7 59.71C220.94 62.59 217.34 64.05 212.99 64.05C208.81 64.05 205.18 62.57 202.21 59.67ZM377.56 63.42L363.75 41.32L363.87 45.3L363.87 63.41L359.36 63.41L359.36 34.15L364.5 34.15L364.64 34.38L377.63 55.19L377.51 51.22L377.51 34.15L382.07 34.15L382.07 63.42L377.56 63.42ZM301.7 63.42L301.7 38.56L293.78 38.56L293.78 34.15L314.18 34.15L314.18 38.56L306.26 38.56L306.26 63.42L301.7 63.42ZM285.5 63.42L285.5 34.15L290.06 34.15L290.06 63.42L285.5 63.42ZM259.89 63.42L259.89 38.56L251.97 38.56L251.97 34.15L272.37 34.15L272.37 38.56L264.45 38.56L264.45 63.42L259.89 63.42ZM231.61 63.37L231.61 34.15L249.08 34.15L249.08 38.56L236.18 38.56L236.18 46.59L247.82 46.59L247.82 50.94L236.18 50.94L236.18 58.97L249.08 58.97L249.08 63.37L231.61 63.37ZM340.15 59.64C343.11 59.64 345.52 58.64 347.54 56.58C349.54 54.58 350.55 51.95 350.55 48.79C350.55 45.62 349.54 42.98 347.55 40.99C345.51 38.96 343.03 37.93 340.17 37.93C337.21 37.93 334.8 38.93 332.8 40.99C330.79 42.99 329.78 45.62 329.78 48.79C329.78 51.95 330.78 54.59 332.77 56.58C332.77 56.58 332.77 56.58 332.77 56.58C335.78 58.62 338.24 59.64 340.15 59.64Z" id="bxZIA4Npx"></path><path d="M304.53 124.37C304.53 135.91 313.6 144.46 324.67 144.46C335.8 144.46 344.82 135.96 344.82 124.37C344.82 112.73 335.8 104.29 324.67 104.29C313.55 104.29 304.53 112.73 304.53 124.37ZM313.35 124.33C313.35 117.09 318.6 112.15 324.67 112.15C330.76 112.15 336 117.09 336 124.33C336.01 131.51 330.76 136.5 324.67 136.5C318.58 136.5 313.35 131.46 313.35 124.33ZM260.58 124.37C260.58 135.91 269.65 144.46 280.72 144.46C291.85 144.46 300.87 135.96 300.87 124.37C300.87 112.73 291.83 104.29 280.72 104.29C269.59 104.29 260.58 112.73 260.58 124.37ZM269.39 124.33C269.39 117.09 274.65 112.15 280.72 112.15C286.81 112.15 292.05 117.09 292.05 124.33C292.05 131.51 286.81 136.5 280.72 136.5C274.63 136.5 269.39 131.46 269.39 124.33ZM228.42 118.92C240.66 118.92 247.46 118.92 248.83 118.92C248.2 123.69 246.62 127.21 244.21 129.63C241.22 132.62 236.6 135.87 228.47 135.87C215.93 135.87 206.12 125.74 206.12 113.2C206.12 100.66 215.93 90.54 228.47 90.54C235.24 90.54 240.17 93.21 243.83 96.62C244.44 96.02 249.26 91.2 249.86 90.6C244.77 85.72 238 81.99 228.52 81.99C211.31 81.99 196.88 96 196.88 113.15C196.88 130.36 211.3 144.32 228.52 144.32C237.8 144.32 244.77 141.28 250.29 135.56C255.9 129.94 257.68 122.02 257.68 115.63C257.68 113.64 257.53 111.85 257.21 110.33C254.33 110.33 231.29 110.33 228.41 110.33C228.42 110.32 228.42 110.42 228.42 110.42C228.42 111.56 228.42 114.39 228.42 118.92ZM425.14 104.24C414.8 104.24 406.21 112.38 406.21 124.33C406.21 135.61 414.71 144.41 426.14 144.41C435.32 144.41 440.67 138.8 442.87 135.5C442.19 135.04 436.73 131.39 436.05 130.93C433.79 134.29 430.65 136.49 426.19 136.49C421.68 136.49 418.52 134.44 416.43 130.4C419.11 129.29 440.6 120.39 443.28 119.28C443.28 119.29 442.34 117.04 442.34 117.04C440.66 112.53 435.57 104.24 425.14 104.24ZM425.44 112.05C428.96 112.05 431.9 113.78 432.9 116.3C431.7 116.79 425.72 119.28 414.95 123.75C418.97 115.95 422.47 112.05 425.44 112.05ZM401.96 143.21L401.96 84.2L393.14 84.2L393.14 143.21L401.96 143.21ZM378.34 108.75C376.35 106.38 372.57 104.24 367.74 104.24C357.72 104.24 348.49 113.06 348.49 124.39C348.49 135.67 357.67 144.38 367.74 144.38C372.51 144.38 376.35 142.22 378.34 139.81C378.36 139.81 378.46 139.81 378.65 139.81C378.65 141.54 378.65 142.5 378.65 142.69C378.65 150.36 374.56 154.49 367.95 154.49C362.55 154.49 359.19 150.61 357.83 147.36C357.06 147.68 350.93 150.24 350.16 150.56C352.36 155.86 358.24 162.42 367.94 162.42C378.28 162.42 387.04 156.33 387.04 141.48C387.04 139.08 387.04 127.07 387.04 105.44L378.7 105.44C378.7 107.43 378.7 108.53 378.7 108.75C378.71 108.75 378.65 108.75 378.65 108.75C378.59 108.75 378.37 108.75 378.34 108.75ZM357.36 124.39C357.36 117.3 362.44 112.17 368.53 112.17C374.56 112.17 379.23 117.36 379.23 124.39C379.29 131.42 374.57 136.5 368.53 136.5C362.44 136.5 357.36 131.42 357.36 124.39ZM462.54 84.2L462.54 143.21L471.36 143.21L471.36 120.87C478.73 120.87 482.82 120.87 483.64 120.87C493.4 120.87 503 113.79 503 102.56C503 91.33 493.44 84.2 483.63 84.2C480.82 84.2 473.79 84.2 462.54 84.2ZM471.35 112.62L471.35 92.37C478.87 92.37 483.05 92.37 483.89 92.37C490.49 92.37 494.23 97.82 494.23 102.5C494.23 107.13 490.45 112.62 483.89 112.62C482.22 112.62 478.04 112.62 471.35 112.62ZM522.6 113.2C523.38 113.53 529.64 116.13 530.42 116.45C532.1 113.2 535.19 112.09 538.45 112.09C543.02 112.09 547.63 114.83 547.74 119.7C547.74 119.76 547.74 120.26 547.74 120.32C546.16 119.43 542.7 118.06 538.55 118.06C530.11 118.06 521.55 122.68 521.55 131.33C521.55 139.26 528.48 144.34 536.19 144.34C542.11 144.34 545.37 141.67 547.41 138.57C547.43 138.57 547.54 138.57 547.73 138.57L547.73 143.14L556.23 143.14C556.23 129.58 556.23 122.04 556.23 120.54C556.23 110.01 548.41 104.18 538.34 104.18C531.94 104.18 525.33 107.02 522.6 113.2ZM530.31 131.46C530.31 126.89 535.35 125.16 539.65 125.16C543.53 125.16 545.37 126 547.68 127.15C547.04 132.45 542.57 136.45 537.24 136.5C534.35 136.5 530.31 135.09 530.31 131.46ZM577.11 131.04L576.8 131.04L566.31 105.44L556.82 105.44L572.56 141.22L563.59 161.11L572.77 161.11C587.3 127.71 595.37 109.15 596.99 105.44C596.99 105.44 587.24 105.44 587.24 105.44C585.89 108.86 582.51 117.39 577.11 131.04ZM516.68 143.21L516.68 84.2L507.86 84.2L507.86 143.21L516.68 143.21Z" id="b14FqutVgW"></path><path d="M50.11 43.81C50.11 54.25 50.11 137.77 50.11 148.21C50.11 151.15 50.9 153.4 52.31 154.81C52.33 154.83 52.45 154.94 52.67 155.13L111.17 96.64L111.17 95.33C76.04 60.23 56.53 40.73 52.63 36.82C52.63 36.82 52.26 37.14 52.26 37.14C50.9 38.61 50.11 40.86 50.11 43.81Z" id="a20oUX5Bmd"></path><linearGradient id="gradienta4WXNKNh1g" gradientUnits="userSpaceOnUse" x1="105.92" y1="42.68" x2="26.69" y2="121.92"><stop style="stop-color: #00a0ff;stop-opacity: 1" offset="0%"></stop><stop style="stop-color: #00a1ff;stop-opacity: 1" offset="0.6569999%"></stop><stop style="stop-color: #00beff;stop-opacity: 1" offset="26.009999999999998%"></stop><stop style="stop-color: #00d2ff;stop-opacity: 1" offset="51.22%"></stop><stop style="stop-color: #00dfff;stop-opacity: 1" offset="76.03999999999999%"></stop><stop style="stop-color: #00e3ff;stop-opacity: 1" offset="100%"></stop></linearGradient><path d="M111.12 96.68L111.12 95.32L130.63 75.81L131.05 76.07C144.9 83.94 152.59 88.31 154.13 89.18C160.73 92.9 160.73 99.05 154.13 102.82C151.82 104.13 133.36 114.62 131.05 115.93C131.05 115.93 130.63 116.19 130.63 116.19C128.03 113.59 121.52 107.09 111.12 96.68Z" id="a1gKNUvtmB"></path><linearGradient id="gradientht4qgYwFG" gradientUnits="userSpaceOnUse" x1="162.74" y1="96" x2="48.5" y2="96"><stop style="stop-color: #ffe000;stop-opacity: 1" offset="0%"></stop><stop style="stop-color: #ffbd00;stop-opacity: 1" offset="40.87%"></stop><stop style="stop-color: #ffa500;stop-opacity: 1" offset="77.53999999999999%"></stop><stop style="stop-color: #ff9c00;stop-opacity: 1" offset="100%"></stop></linearGradient><path d="M131.05 115.93L111.12 96C75.8 131.31 56.19 150.93 52.26 154.86C54.42 157.16 58.03 157.42 62.07 155.18C66.67 152.56 89.66 139.48 131.05 115.93" id="bb6Rrd0t2k"></path><linearGradient id="gradientaUCHfhjqG" gradientUnits="userSpaceOnUse" x1="120.21" y1="106.85" x2="12.76" y2="214.29"><stop style="stop-color: #ff3a44;stop-opacity: 1" offset="0%"></stop><stop style="stop-color: #c31162;stop-opacity: 1" offset="100%"></stop></linearGradient><path d="M62.07 36.88C58.03 34.58 54.4 34.89 52.26 37.2C56.19 41.12 75.8 60.72 111.12 96L131.05 76.07C89.66 52.56 66.67 39.5 62.07 36.88Z" id="d30omzGwfJ"></path><linearGradient id="gradientdBsoyyMHi" gradientUnits="userSpaceOnUse" x1="37.44" y1="2.42" x2="85.42" y2="50.4"><stop style="stop-color: #32a071;stop-opacity: 1" offset="0%"></stop><stop style="stop-color: #2da771;stop-opacity: 1" offset="6.8500000000000005%"></stop><stop style="stop-color: #15cf74;stop-opacity: 1" offset="47.620000000000005%"></stop><stop style="stop-color: #06e775;stop-opacity: 1" offset="80.08999999999999%"></stop><stop style="stop-color: #00f076;stop-opacity: 1" offset="100%"></stop></linearGradient><path d="M62.12 154.43C58.29 156.64 54.88 156.48 52.67 154.48C52.65 154.5 52.53 154.63 52.31 154.85C52.53 155.04 52.65 155.14 52.67 155.16C54.88 157.15 58.29 157.32 62.12 155.12C69.01 151.2 124.2 119.85 131.1 115.93C131.1 115.93 130.63 115.51 130.63 115.51C116.93 123.29 68.97 150.54 62.12 154.43Z" id="l41v55QAJ1"></path><path d="M130.57 115.51L130.99 115.93C144.84 108.06 152.53 103.69 154.07 102.82C157.38 100.93 159 98.46 159 96C158.8 98.26 157.12 100.4 154.13 102.13C150.99 103.92 143.13 108.38 130.57 115.51Z" id="h3D6R11RFh"></path><path d="M154.13 89.87C157.12 91.55 158.8 93.75 159.06 96C159.06 93.54 157.44 91.07 154.13 89.18C144.92 83.95 71.28 42.11 62.07 36.88C55.46 33.1 50.11 36.26 50.11 43.81C50.11 43.88 50.11 44.42 50.11 44.49C50.11 36.93 55.46 33.83 62.07 37.57C80.48 48.03 144.92 84.64 154.13 89.87Z" id="e1AOfTjSC1"></path></defs><g><g><g><g><use xlink:href="#advMTbEmA" opacity="1" fill="#0953ff" fill-opacity="1"></use><g><use xlink:href="#advMTbEmA" opacity="1" fill-opacity="0" stroke="#000000" stroke-width="1" stroke-opacity="0"></use></g></g><g><use xlink:href="#bxZIA4Npx" opacity="1" fill="#ffffff" fill-opacity="1"></use><g><use xlink:href="#bxZIA4Npx" opacity="1" fill-opacity="0" stroke="#000000" stroke-width="1" stroke-opacity="0"></use></g></g><g><use xlink:href="#b14FqutVgW" opacity="1" fill="#ffffff" fill-opacity="1"></use><g><use xlink:href="#b14FqutVgW" opacity="1" fill-opacity="0" stroke="#000000" stroke-width="1" stroke-opacity="0"></use></g></g><g><use xlink:href="#a20oUX5Bmd" opacity="1" fill="url(#gradienta4WXNKNh1g)"></use><g><use xlink:href="#a20oUX5Bmd" opacity="1" fill-opacity="0" stroke="#000000" stroke-width="1" stroke-opacity="0"></use></g></g><g><use xlink:href="#a1gKNUvtmB" opacity="1" fill="url(#gradientht4qgYwFG)"></use><g><use xlink:href="#a1gKNUvtmB" opacity="1" fill-opacity="0" stroke="#000000" stroke-width="1" stroke-opacity="0"></use></g></g><g><use xlink:href="#bb6Rrd0t2k" opacity="1" fill="url(#gradientaUCHfhjqG)"></use><g><use xlink:href="#bb6Rrd0t2k" opacity="1" fill-opacity="0" stroke="#000000" stroke-width="1" stroke-opacity="0"></use></g></g><g><use xlink:href="#d30omzGwfJ" opacity="1" fill="url(#gradientdBsoyyMHi)"></use><g><use xlink:href="#d30omzGwfJ" opacity="1" fill-opacity="0" stroke="#000000" stroke-width="1" stroke-opacity="0"></use></g></g><g><use xlink:href="#l41v55QAJ1" opacity="1" fill="#000000" fill-opacity="1"></use><g><use xlink:href="#l41v55QAJ1" opacity="1" fill-opacity="0" stroke="#000000" stroke-width="1" stroke-opacity="0"></use></g></g><g><use xlink:href="#h3D6R11RFh" opacity="1" fill="#000000" fill-opacity="1"></use><g><use xlink:href="#h3D6R11RFh" opacity="1" fill-opacity="0" stroke="#000000" stroke-width="1" stroke-opacity="0"></use></g></g><g><use xlink:href="#e1AOfTjSC1" opacity="1" fill="#ffffff" fill-opacity="1"></use><g><use xlink:href="#e1AOfTjSC1" opacity="1" fill-opacity="0" stroke="#000000" stroke-width="1" stroke-opacity="0"></use></g></g></g></g></g></svg>