<?xml version="1.0" encoding="UTF-8" standalone="no"?>
<!DOCTYPE svg PUBLIC "-//W3C//DTD SVG 1.1//EN" "http://www.w3.org/Graphics/SVG/1.1/DTD/svg11.dtd">
<svg version="1.1" xmlns="http://www.w3.org/2000/svg" xmlns:xlink="http://www.w3.org/1999/xlink" preserveAspectRatio="xMidYMid meet" viewBox="26.448781309152267 0.21837658944987867 574.1023139049173 502.32019572082135" width="400" height="350.6"><defs><path d="M261.03 48.32C260.13 48.32 259.4 49.05 259.4 49.95C259.4 66.76 259.4 201.29 259.4 218.11C259.4 219.01 260.13 219.73 261.03 219.73C282.11 219.73 450.78 219.73 471.87 219.73C472.76 219.73 473.49 219.01 473.49 218.11C473.49 203.99 473.49 91.06 473.49 76.94C473.49 76.04 472.76 75.32 471.87 75.31C459.77 75.31 362.96 75.31 350.86 75.31C349.63 75.32 348.45 74.86 347.54 74.03C344.82 71.56 323.05 51.78 320.33 49.31C319.63 48.67 318.72 48.32 317.77 48.32C306.42 48.32 272.38 48.32 261.03 48.32Z" id="feVsZmRIX"></path><path d="M356.28 26.59C355.73 26.27 355.03 26.45 354.7 27C348.46 37.62 298.51 122.62 292.27 133.25C291.94 133.8 292.13 134.5 292.67 134.83C301.23 139.86 369.71 180.1 378.27 185.13C378.82 185.45 379.52 185.26 379.85 184.72C386.09 174.09 436.04 89.09 442.28 78.47C442.61 77.92 442.42 77.21 441.88 76.89C424.76 66.83 373.4 36.65 356.28 26.59Z" id="a2xKZSPTt1"></path><path d="M357.59 31.64C357.04 31.31 356.34 31.5 356.01 32.04C350.14 42.03 303.18 121.95 297.31 131.94C296.99 132.49 297.17 133.19 297.72 133.52C305.64 138.17 369.04 175.42 376.96 180.08C377.51 180.4 378.21 180.22 378.54 179.67C384.41 169.68 431.37 89.77 437.24 79.78C437.56 79.23 437.38 78.52 436.83 78.2C420.98 68.89 373.44 40.95 357.59 31.64Z" id="f7iRGe9mZZ"></path><path d="M401.01 115.29C401.83 115.78 402.89 115.5 403.37 114.68C403.85 113.86 403.58 112.8 402.76 112.31C402.76 112.31 402.76 112.31 402.76 112.31C396.92 108.88 350.21 81.43 344.37 78C343.55 77.52 342.49 77.79 342 78.61C341.52 79.44 341.79 80.49 342.61 80.98C342.61 80.98 342.62 80.98 342.62 80.98C342.62 80.98 395.17 111.86 401.01 115.29Z" id="e1WM3HxnU4"></path><path d="M397.16 75.7C397.71 76.02 398.54 75.61 399.03 74.79C399.51 73.97 399.46 73.04 398.91 72.72C395.04 70.44 364.05 52.23 360.18 49.95C359.63 49.63 358.8 50.04 358.31 50.86C357.83 51.69 357.88 52.61 358.43 52.93C366.17 57.49 393.29 73.42 397.16 75.7Z" id="b5R9FjRR1T"></path><path d="M392.14 84.24C392.69 84.56 393.52 84.15 394.01 83.33C394.49 82.51 394.44 81.58 393.89 81.26C390.02 78.98 359.03 60.77 355.16 58.49C354.61 58.17 353.78 58.58 353.3 59.4C352.81 60.23 352.86 61.15 353.41 61.47C361.16 66.03 388.27 81.96 392.14 84.24Z" id="dasplI80M"></path><path d="M395.35 124.93C396.17 125.41 397.23 125.13 397.71 124.31C398.19 123.49 397.92 122.43 397.1 121.95C391.26 118.52 344.55 91.07 338.71 87.64C337.89 87.15 336.83 87.43 336.34 88.25C335.86 89.07 336.14 90.13 336.96 90.61C336.96 90.61 389.51 121.49 395.35 124.93Z" id="f3bLkOZaJl"></path><path d="M389.69 134.56C390.51 135.04 391.57 134.76 392.05 133.94C392.53 133.12 392.26 132.06 391.44 131.58C385.6 128.15 338.89 100.7 333.05 97.27C332.23 96.78 331.17 97.06 330.68 97.88C330.2 98.7 330.47 99.76 331.3 100.25C331.3 100.25 331.3 100.25 331.3 100.25C331.3 100.25 383.85 131.13 389.69 134.56Z" id="abjWEPuaA"></path><path d="M384.02 144.19C384.85 144.67 385.91 144.4 386.39 143.57C386.87 142.75 386.6 141.69 385.78 141.21C379.94 137.78 333.23 110.33 327.39 106.9C326.57 106.42 325.51 106.69 325.02 107.51C324.54 108.34 324.81 109.39 325.64 109.88C325.64 109.88 325.64 109.88 325.64 109.88C325.64 109.88 378.19 140.76 384.02 144.19Z" id="c3jxs8cRlW"></path><path d="M378.36 153.82C379.19 154.3 380.25 154.03 380.73 153.21C381.21 152.38 380.94 151.33 380.12 150.84C380.12 150.84 380.12 150.84 380.12 150.84C374.28 147.41 327.57 119.96 321.73 116.53C320.91 116.05 319.85 116.32 319.36 117.15C318.88 117.97 319.15 119.03 319.98 119.51C319.98 119.51 372.53 150.39 378.36 153.82Z" id="dcK6tJpTs"></path><path d="M372.7 163.45C373.53 163.94 374.59 163.66 375.07 162.84C375.55 162.02 375.28 160.96 374.46 160.47C368.62 157.04 321.91 129.59 316.07 126.16C315.24 125.68 314.19 125.95 313.7 126.78C313.22 127.6 313.49 128.66 314.32 129.14C314.32 129.14 314.32 129.14 314.32 129.14C314.32 129.14 366.87 160.02 372.7 163.45Z" id="dp6EG7yw5"></path><path d="M409.27 77.59C404.24 77.59 400.17 81.66 400.17 86.68C400.17 91.71 404.24 95.78 409.27 95.78C414.29 95.78 418.37 91.71 418.37 86.68C418.37 81.66 414.29 77.59 409.27 77.59Z" id="c6jJFpV9Ge"></path><path d="" id="b2eXTH2juG"></path><path d="M283.64 57.19C283.01 57.06 282.4 57.45 282.27 58.08C279.71 70.13 259.2 166.56 256.63 178.62C256.5 179.24 256.9 179.85 257.52 179.98C267.23 182.05 344.92 198.57 354.63 200.64C355.25 200.77 355.86 200.37 355.99 199.75C358.56 187.7 379.07 91.26 381.63 79.21C381.76 78.59 381.37 77.98 380.74 77.84C361.32 73.71 303.06 61.32 283.64 57.19Z" id="d1evdr18PF"></path><path d="M286.47 61.56C285.85 61.43 285.24 61.83 285.11 62.45C282.7 73.78 263.41 164.45 261 175.78C260.87 176.4 261.27 177.01 261.89 177.15C270.88 179.06 342.8 194.35 351.79 196.27C352.41 196.4 353.02 196 353.16 195.38C355.57 184.05 374.85 93.38 377.26 82.05C377.39 81.43 376.99 80.81 376.37 80.68C358.39 76.86 304.45 65.39 286.47 61.56Z" id="mhwUQDsYy"></path><path d="M287.87 113.11C286.94 112.91 286.34 112 286.54 111.06C286.74 110.13 287.65 109.53 288.59 109.73C288.59 109.73 288.59 109.73 288.59 109.73C295.22 111.14 348.21 122.41 354.83 123.82C355.77 124.02 356.37 124.93 356.17 125.87C355.97 126.8 355.05 127.4 354.12 127.2C354.12 127.2 354.12 127.2 354.12 127.2C340.87 124.38 294.5 114.52 287.87 113.11Z" id="b1Fw4Qkgeu"></path><path d="M317.43 86.49C316.82 86.35 316.47 85.49 316.67 84.56C316.87 83.62 317.53 82.97 318.15 83.11C322.55 84.04 357.71 91.52 362.1 92.45C362.72 92.58 363.06 93.45 362.86 94.38C362.66 95.31 362 95.96 361.38 95.83C352.59 93.96 321.83 87.42 317.43 86.49Z" id="cD5sofWTY"></path><path d="M315.37 96.17C314.75 96.04 314.41 95.18 314.61 94.25C314.81 93.31 315.47 92.66 316.09 92.79C320.49 93.73 355.64 101.21 360.04 102.14C360.66 102.27 361 103.14 360.8 104.07C360.6 105 359.94 105.65 359.32 105.52C350.53 103.65 319.77 97.11 315.37 96.17Z" id="bUo9aBO6j"></path><path d="M285.55 124.04C284.62 123.84 284.02 122.92 284.22 121.99C284.42 121.06 285.34 120.46 286.27 120.66C292.89 122.07 345.89 133.34 352.51 134.75C353.44 134.95 354.04 135.86 353.84 136.8C353.64 137.73 352.72 138.32 351.79 138.13C351.79 138.13 351.79 138.13 351.79 138.13C351.79 138.13 292.17 125.45 285.55 124.04Z" id="a2f4hmTAuQ"></path><path d="M283.23 134.97C282.29 134.76 281.7 133.85 281.9 132.91C282.1 131.98 283.01 131.39 283.94 131.59C290.57 132.99 343.56 144.27 350.19 145.67C351.12 145.87 351.71 146.79 351.52 147.72C351.32 148.66 350.4 149.25 349.47 149.05C349.47 149.05 349.47 149.05 349.47 149.05C349.47 149.05 289.85 136.37 283.23 134.97Z" id="d9cDsJJrI"></path><path d="M280.9 145.89C279.97 145.7 279.37 144.78 279.57 143.85C279.76 142.91 280.68 142.31 281.61 142.51C281.62 142.51 281.62 142.51 281.62 142.51C288.24 143.92 341.24 155.19 347.86 156.6C348.79 156.8 349.39 157.72 349.19 158.65C348.99 159.58 348.07 160.18 347.14 159.98C333.89 157.16 287.53 147.3 280.9 145.89Z" id="atNw0j3h"></path><path d="M278.58 156.82C277.64 156.62 277.05 155.71 277.24 154.77C277.44 153.84 278.36 153.24 279.29 153.44C279.29 153.44 279.29 153.44 279.3 153.44C285.92 154.85 338.91 166.12 345.54 167.53C346.47 167.73 347.07 168.64 346.87 169.58C346.67 170.51 345.76 171.11 344.82 170.91C344.82 170.91 344.82 170.91 344.82 170.91C344.82 170.91 285.2 158.23 278.58 156.82Z" id="f3KbFP2rbt"></path><path d="M276.25 167.75C275.32 167.55 274.73 166.63 274.93 165.7C275.13 164.77 276.04 164.17 276.97 164.37C283.6 165.78 336.59 177.05 343.21 178.46C344.15 178.65 344.74 179.57 344.55 180.5C344.35 181.44 343.43 182.03 342.5 181.84C342.5 181.84 342.5 181.84 342.49 181.84C342.49 181.84 282.88 169.16 276.25 167.75Z" id="eWU2lm99r"></path><path d="M301.09 77.32C296.06 77.32 291.99 81.4 291.99 86.42C291.99 91.45 296.06 95.52 301.09 95.52C306.11 95.52 310.19 91.45 310.19 86.42C310.19 81.4 306.11 77.32 301.09 77.32Z" id="gjz1qPDwo"></path><path d="" id="eSFQi1qUj"></path><path d="M417.1 0.4C416.57 0.06 415.85 0.22 415.51 0.75C408.91 11.16 356.12 94.42 349.52 104.83C349.18 105.37 349.34 106.08 349.87 106.42C358.26 111.74 425.33 154.27 433.72 159.59C434.25 159.93 434.97 159.77 435.31 159.23C441.91 148.82 494.7 65.56 501.3 55.15C501.64 54.62 501.48 53.91 500.95 53.56C484.18 42.93 433.87 11.03 417.1 0.4Z" id="a10qIJ8dPy"></path><path d="M418.24 5.48C417.7 5.14 416.99 5.3 416.65 5.84C410.45 15.62 360.81 93.91 354.6 103.69C354.26 104.23 354.42 104.94 354.96 105.28C362.72 110.2 424.82 149.58 432.58 154.5C433.12 154.84 433.83 154.68 434.17 154.14C440.37 144.36 490.01 66.08 496.22 56.29C496.56 55.76 496.4 55.04 495.86 54.7C480.34 44.86 433.77 15.33 418.24 5.48Z" id="b5IrT5YObA"></path><path d="M401.61 54.3C400.8 53.78 400.56 52.72 401.08 51.91C401.59 51.11 402.65 50.87 403.46 51.38C409.18 55 454.93 84.02 460.65 87.64C461.46 88.16 461.7 89.22 461.19 90.03C460.68 90.83 459.61 91.07 458.8 90.56C458.8 90.56 458.8 90.56 458.8 90.56C458.8 90.56 407.33 57.92 401.61 54.3Z" id="a20qqN1GL2"></path><path d="M438.59 39.63C438.05 39.29 438.04 38.36 438.55 37.55C439.06 36.75 439.9 36.37 440.44 36.71C444.23 39.11 474.59 58.36 478.38 60.77C478.92 61.11 478.94 62.04 478.43 62.84C477.91 63.65 477.07 64.03 476.53 63.69C468.94 58.88 442.38 42.03 438.59 39.63Z" id="ePh78E2Ds"></path><path d="M433.28 47.99C432.75 47.65 432.73 46.72 433.24 45.92C433.75 45.11 434.6 44.73 435.13 45.07C438.93 47.48 469.28 66.73 473.08 69.13C473.61 69.47 473.63 70.4 473.12 71.21C472.61 72.01 471.76 72.39 471.23 72.05C463.64 67.24 437.08 50.4 433.28 47.99Z" id="e1AwJ5tOc"></path><path d="M395.63 63.73C394.82 63.22 394.58 62.15 395.1 61.35C395.61 60.54 396.67 60.3 397.48 60.81C403.2 64.44 448.95 93.45 454.67 97.08C455.48 97.59 455.71 98.66 455.2 99.46C454.69 100.27 453.63 100.51 452.82 100C452.82 100 401.35 67.36 395.63 63.73Z" id="e1aF5IyILk"></path><path d="M389.64 73.17C388.84 72.65 388.6 71.59 389.11 70.78C389.62 69.98 390.69 69.74 391.49 70.25C397.21 73.87 442.97 102.89 448.69 106.51C449.49 107.02 449.73 108.09 449.22 108.9C448.71 109.7 447.65 109.94 446.84 109.44C446.84 109.43 446.84 109.43 446.84 109.43C446.84 109.43 395.36 76.79 389.64 73.17Z" id="b1mlw92ceB"></path><path d="M383.66 82.6C382.85 82.09 382.61 81.02 383.12 80.22C383.63 79.41 384.7 79.17 385.51 79.68C385.51 79.68 385.51 79.68 385.51 79.68C391.23 83.31 436.98 112.32 442.7 115.95C443.51 116.46 443.75 117.53 443.23 118.33C442.72 119.14 441.66 119.38 440.85 118.87C440.85 118.87 389.38 86.23 383.66 82.6Z" id="d4pycMXZXW"></path><path d="M377.68 92.04C376.87 91.52 376.63 90.46 377.14 89.65C377.65 88.85 378.72 88.61 379.53 89.12C385.25 92.74 431 121.76 436.72 125.38C437.53 125.9 437.76 126.96 437.25 127.77C436.74 128.57 435.68 128.81 434.87 128.3C434.87 128.3 383.4 95.66 377.68 92.04Z" id="e26hAd3Hqk"></path><path d="M371.69 101.47C370.89 100.96 370.65 99.89 371.16 99.09C371.67 98.28 372.74 98.04 373.54 98.55C379.26 102.18 425.02 131.19 430.74 134.82C431.54 135.33 431.78 136.4 431.27 137.2C430.76 138.01 429.69 138.25 428.89 137.74C428.89 137.74 428.89 137.74 428.89 137.74C428.89 137.74 377.41 105.1 371.69 101.47Z" id="a5i5cv4ibh"></path><path d="M423.28 24.78C418.26 24.78 414.19 28.85 414.19 33.88C414.19 38.9 418.26 42.98 423.28 42.98C428.31 42.98 432.38 38.9 432.38 33.88C432.38 28.85 428.31 24.78 423.28 24.78Z" id="c3voUCzY3L"></path><path d="" id="fYO0YfWR"></path><path d="M331.52 113.14C332.48 113.13 333.24 112.35 333.24 111.4C333.23 110.44 332.45 109.68 331.5 109.68C324.73 109.72 270.55 110.01 263.78 110.05C262.83 110.05 262.06 110.83 262.06 111.78C262.07 112.74 262.85 113.51 263.8 113.5C277.34 113.43 324.75 113.17 331.52 113.14Z" id="bixoE0b5Z"></path><path d="M303.97 123.82C304.92 123.81 305.69 123.03 305.68 122.08C305.68 121.13 304.9 120.36 303.95 120.36C299.93 120.4 267.8 120.69 263.78 120.73C262.83 120.74 262.06 121.51 262.06 122.47C262.07 123.42 262.85 124.19 263.8 124.19C271.83 124.11 299.95 123.86 303.97 123.82Z" id="a4xsnR2kEF"></path><path d="M291.07 502.54C291.59 502.54 292.02 502.1 292.02 501.57C292.02 501.03 291.59 500.59 291.07 500.59C290.55 500.59 290.13 501.03 290.13 501.57C290.13 502.1 290.55 502.54 291.07 502.54Z" id="bztn4eb3J"></path><path d="M289.82 448.45C289.3 448.45 288.88 448.88 288.88 449.42C288.88 449.96 289.3 450.39 289.82 450.39C290.34 450.39 290.76 449.96 290.76 449.42C290.76 448.88 290.34 448.45 289.82 448.45Z" id="g4DpJMGRgd"></path><path d="M291.07 400.84C291.59 400.84 292.02 400.41 292.02 399.87C292.02 399.33 291.59 398.9 291.07 398.9C290.55 398.9 290.13 399.33 290.13 399.87C290.13 400.41 290.55 400.84 291.07 400.84Z" id="cjd85uYAt"></path><path d="M291.07 349.99C291.59 349.99 292.02 349.56 292.02 349.02C292.02 348.48 291.59 348.05 291.07 348.05C290.55 348.05 290.13 348.48 290.13 349.02C290.13 349.56 290.55 349.99 291.07 349.99Z" id="aoLoGLi1I"></path><path d="M239.51 502.54C240.03 502.54 240.45 502.1 240.45 501.57C240.45 501.03 240.03 500.59 239.51 500.59C238.99 500.59 238.57 501.03 238.57 501.57C238.57 502.1 238.99 502.54 239.51 502.54Z" id="g1atEkKRde"></path><path d="M239.51 451.69C240.03 451.69 240.45 451.25 240.45 450.72C240.45 450.18 240.03 449.75 239.51 449.75C238.99 449.75 238.57 450.18 238.57 450.72C238.57 451.25 238.99 451.69 239.51 451.69Z" id="a1YmhS4et"></path><path d="M238.88 400.84C239.75 400.84 240.45 400.12 240.45 399.22C240.45 398.33 239.75 397.6 238.88 397.6C238.01 397.6 237.31 398.33 237.31 399.22C237.31 400.12 238.01 400.84 238.88 400.84Z" id="e24PO6b25a"></path><path d="M239.51 349.99C240.03 349.99 240.45 349.56 240.45 349.02C240.45 348.48 240.03 348.05 239.51 348.05C238.99 348.05 238.57 348.48 238.57 349.02C238.57 349.56 238.99 349.99 239.51 349.99Z" id="aRvpScVcw"></path><path d="M187.94 502.54C188.46 502.54 188.88 502.1 188.88 501.57C188.88 501.03 188.46 500.59 187.94 500.59C187.42 500.59 187 501.03 187 501.57C187 502.1 187.42 502.54 187.94 502.54Z" id="d1bH2RM6BH"></path><path d="M187.31 451.69C188.18 451.69 188.88 450.96 188.88 450.07C188.88 449.17 188.18 448.45 187.31 448.45C186.44 448.45 185.74 449.17 185.74 450.07C185.74 450.96 186.44 451.69 187.31 451.69Z" id="d4DszmYmX"></path><path d="M187.94 400.84C188.46 400.84 188.88 400.41 188.88 399.87C188.88 399.33 188.46 398.9 187.94 398.9C187.42 398.9 187 399.33 187 399.87C187 400.41 187.42 400.84 187.94 400.84Z" id="asYMirVEW"></path><path d="M187.94 349.99C188.46 349.99 188.88 349.56 188.88 349.02C188.88 348.48 188.46 348.05 187.94 348.05C187.42 348.05 187 348.48 187 349.02C187 349.56 187.42 349.99 187.94 349.99Z" id="f8532rtD"></path><path d="M136.37 502.54C136.89 502.54 137.31 502.1 137.31 501.57C137.31 501.03 136.89 500.59 136.37 500.59C135.85 500.59 135.43 501.03 135.43 501.57C135.43 502.1 135.85 502.54 136.37 502.54Z" id="a8P7X2wcys"></path><path d="M136.37 451.69C136.89 451.69 137.31 451.25 137.31 450.72C137.31 450.18 136.89 449.75 136.37 449.75C135.85 449.75 135.43 450.18 135.43 450.72C135.43 451.25 135.85 451.69 136.37 451.69Z" id="csAkKS207"></path><path d="M136.37 400.84C136.89 400.84 137.31 400.41 137.31 399.87C137.31 399.33 136.89 398.9 136.37 398.9C135.85 398.9 135.43 399.33 135.43 399.87C135.43 400.41 135.85 400.84 136.37 400.84Z" id="aJJaxSKEj"></path><path d="M136.37 349.99C136.89 349.99 137.31 349.56 137.31 349.02C137.31 348.48 136.89 348.05 136.37 348.05C135.85 348.05 135.43 348.48 135.43 349.02C135.43 349.56 135.85 349.99 136.37 349.99Z" id="ai0naVsuz"></path><path d="M84.17 502.54C85.04 502.54 85.74 501.81 85.74 500.92C85.74 500.02 85.04 499.3 84.17 499.3C83.31 499.3 82.61 500.02 82.61 500.92C82.61 501.81 83.31 502.54 84.17 502.54Z" id="ek5SobDCF"></path><path d="M84.8 451.69C85.32 451.69 85.74 451.25 85.74 450.72C85.74 450.18 85.32 449.75 84.8 449.75C84.28 449.75 83.86 450.18 83.86 450.72C83.86 451.25 84.28 451.69 84.8 451.69Z" id="c63E0nJ2c"></path><path d="M84.8 400.84C85.32 400.84 85.74 400.41 85.74 399.87C85.74 399.33 85.32 398.9 84.8 398.9C84.28 398.9 83.86 399.33 83.86 399.87C83.86 400.41 84.28 400.84 84.8 400.84Z" id="b4f8NYGzyE"></path><path d="M84.8 349.99C85.32 349.99 85.74 349.56 85.74 349.02C85.74 348.48 85.32 348.05 84.8 348.05C84.28 348.05 83.86 348.48 83.86 349.02C83.86 349.56 84.28 349.99 84.8 349.99Z" id="ak6JNjUFy"></path><path d="M33.23 502.54C33.75 502.54 34.18 502.1 34.18 501.57C34.18 501.03 33.75 500.59 33.23 500.59C32.71 500.59 32.29 501.03 32.29 501.57C32.29 502.1 32.71 502.54 33.23 502.54Z" id="d1b8sDkNXN"></path><path d="M33.23 451.69C33.75 451.69 34.18 451.25 34.18 450.72C34.18 450.18 33.75 449.75 33.23 449.75C32.71 449.75 32.29 450.18 32.29 450.72C32.29 451.25 32.71 451.69 33.23 451.69Z" id="bVw6VtB1T"></path><path d="M32.61 400.84C33.47 400.84 34.18 400.12 34.18 399.22C34.18 398.33 33.47 397.6 32.61 397.6C31.74 397.6 31.04 398.33 31.04 399.22C31.04 400.12 31.74 400.84 32.61 400.84Z" id="b7qpjedrha"></path><path d="M33.23 349.99C33.75 349.99 34.18 349.56 34.18 349.02C34.18 348.48 33.75 348.05 33.23 348.05C32.71 348.05 32.29 348.48 32.29 349.02C32.29 349.56 32.71 349.99 33.23 349.99Z" id="b2ZOvDWXxT"></path><path d="M340.51 346.89C339.99 346.89 339.57 347.33 339.57 347.87C339.57 348.4 339.99 348.84 340.51 348.84C341.03 348.84 341.46 348.4 341.46 347.87C341.46 347.33 341.03 346.89 340.51 346.89Z" id="a5Sf0vHxKr"></path><path d="M341.77 400.98C342.29 400.98 342.71 400.55 342.71 400.01C342.71 399.47 342.29 399.04 341.77 399.04C341.25 399.04 340.83 399.47 340.83 400.01C340.83 400.55 341.25 400.98 341.77 400.98Z" id="c8isHCEHu"></path><path d="M340.51 448.59C339.99 448.59 339.57 449.03 339.57 449.56C339.57 450.1 339.99 450.53 340.51 450.53C341.03 450.53 341.46 450.1 341.46 449.56C341.46 449.03 341.03 448.59 340.51 448.59Z" id="anndUK1qJ"></path><path d="M340.51 499.44C339.99 499.44 339.57 499.87 339.57 500.41C339.57 500.95 339.99 501.38 340.51 501.38C341.03 501.38 341.46 500.95 341.46 500.41C341.46 499.87 341.03 499.44 340.51 499.44Z" id="hbrnFhGct"></path><path d="M392.08 346.89C391.56 346.89 391.14 347.33 391.14 347.87C391.14 348.4 391.56 348.84 392.08 348.84C392.6 348.84 393.02 348.4 393.02 347.87C393.02 347.33 392.6 346.89 392.08 346.89Z" id="d1qpPx5q5s"></path><path d="M392.08 397.74C391.56 397.74 391.14 398.18 391.14 398.71C391.14 399.25 391.56 399.69 392.08 399.69C392.6 399.69 393.02 399.25 393.02 398.71C393.02 398.18 392.6 397.74 392.08 397.74Z" id="adda881Pu"></path><path d="M392.71 448.59C391.84 448.59 391.14 449.32 391.14 450.21C391.14 451.11 391.84 451.83 392.71 451.83C393.58 451.83 394.28 451.11 394.28 450.21C394.28 449.32 393.58 448.59 392.71 448.59Z" id="a1f6ZAtjiM"></path><path d="M392.08 499.44C391.56 499.44 391.14 499.87 391.14 500.41C391.14 500.95 391.56 501.38 392.08 501.38C392.6 501.38 393.02 500.95 393.02 500.41C393.02 499.87 392.6 499.44 392.08 499.44Z" id="a37mJ4MgcJ"></path><path d="M443.65 346.89C443.13 346.89 442.71 347.33 442.71 347.87C442.71 348.4 443.13 348.84 443.65 348.84C444.17 348.84 444.59 348.4 444.59 347.87C444.59 347.33 444.17 346.89 443.65 346.89Z" id="a4wTw2Irh"></path><path d="M444.28 397.74C443.41 397.74 442.71 398.47 442.71 399.36C442.71 400.26 443.41 400.98 444.28 400.98C445.14 400.98 445.85 400.26 445.85 399.36C445.85 398.47 445.14 397.74 444.28 397.74Z" id="c1lhEhApWy"></path><path d="M443.65 448.59C443.13 448.59 442.71 449.03 442.71 449.56C442.71 450.1 443.13 450.53 443.65 450.53C444.17 450.53 444.59 450.1 444.59 449.56C444.59 449.03 444.17 448.59 443.65 448.59Z" id="c7flCbztY"></path><path d="M443.65 499.44C443.13 499.44 442.71 499.87 442.71 500.41C442.71 500.95 443.13 501.38 443.65 501.38C444.17 501.38 444.59 500.95 444.59 500.41C444.59 499.87 444.17 499.44 443.65 499.44Z" id="a185QIxuD7"></path><path d="M495.22 346.89C494.7 346.89 494.28 347.33 494.28 347.87C494.28 348.4 494.7 348.84 495.22 348.84C495.74 348.84 496.16 348.4 496.16 347.87C496.16 347.33 495.74 346.89 495.22 346.89Z" id="bRDRHFvY2"></path><path d="M495.22 397.74C494.7 397.74 494.28 398.18 494.28 398.71C494.28 399.25 494.7 399.69 495.22 399.69C495.74 399.69 496.16 399.25 496.16 398.71C496.16 398.18 495.74 397.74 495.22 397.74Z" id="g1cKE9t1fy"></path><path d="M495.22 448.59C494.7 448.59 494.28 449.03 494.28 449.56C494.28 450.1 494.7 450.53 495.22 450.53C495.74 450.53 496.16 450.1 496.16 449.56C496.16 449.03 495.74 448.59 495.22 448.59Z" id="bkvqXJLvj"></path><path d="M495.22 499.44C494.7 499.44 494.28 499.87 494.28 500.41C494.28 500.95 494.7 501.38 495.22 501.38C495.74 501.38 496.16 500.95 496.16 500.41C496.16 499.87 495.74 499.44 495.22 499.44Z" id="f2kpUmw25"></path><path d="M547.41 346.89C546.55 346.89 545.85 347.62 545.85 348.51C545.85 349.41 546.55 350.13 547.41 350.13C548.28 350.13 548.98 349.41 548.98 348.51C548.98 347.62 548.28 346.89 547.41 346.89Z" id="c1Db7Gfjit"></path><path d="M546.79 397.74C546.27 397.74 545.85 398.18 545.85 398.71C545.85 399.25 546.27 399.69 546.79 399.69C547.31 399.69 547.73 399.25 547.73 398.71C547.73 398.18 547.31 397.74 546.79 397.74Z" id="e5P9rLhqn3"></path><path d="M546.79 448.59C546.27 448.59 545.85 449.03 545.85 449.56C545.85 450.1 546.27 450.53 546.79 450.53C547.31 450.53 547.73 450.1 547.73 449.56C547.73 449.03 547.31 448.59 546.79 448.59Z" id="a3HRZ8kEnd"></path><path d="M546.79 499.44C546.27 499.44 545.85 499.87 545.85 500.41C545.85 500.95 546.27 501.38 546.79 501.38C547.31 501.38 547.73 500.95 547.73 500.41C547.73 499.87 547.31 499.44 546.79 499.44Z" id="a2jV7Th55"></path><path d="M598.35 346.89C597.83 346.89 597.41 347.33 597.41 347.87C597.41 348.4 597.83 348.84 598.35 348.84C598.87 348.84 599.3 348.4 599.3 347.87C599.3 347.33 598.87 346.89 598.35 346.89Z" id="ajnWGil6y"></path><path d="M598.35 397.74C597.83 397.74 597.41 398.18 597.41 398.71C597.41 399.25 597.83 399.69 598.35 399.69C598.87 399.69 599.3 399.25 599.3 398.71C599.3 398.18 598.87 397.74 598.35 397.74Z" id="b24LfD8wQ0"></path><path d="M598.98 448.59C598.12 448.59 597.41 449.32 597.41 450.21C597.41 451.11 598.12 451.83 598.98 451.83C599.85 451.83 600.55 451.11 600.55 450.21C600.55 449.32 599.85 448.59 598.98 448.59Z" id="a2eQ8fZhx2"></path><path d="M598.35 499.44C597.83 499.44 597.41 499.87 597.41 500.41C597.41 500.95 597.83 501.38 598.35 501.38C598.87 501.38 599.3 500.95 599.3 500.41C599.3 499.87 598.87 499.44 598.35 499.44Z" id="b2N65MnSRO"></path><path d="M291.07 315.34C291.59 315.34 292.02 314.9 292.02 314.37C292.02 313.83 291.59 313.39 291.07 313.39C290.55 313.39 290.13 313.83 290.13 314.37C290.13 314.9 290.55 315.34 291.07 315.34Z" id="b6yh0guuaF"></path><path d="M289.82 261.25C289.3 261.25 288.88 261.68 288.88 262.22C288.88 262.76 289.3 263.19 289.82 263.19C290.34 263.19 290.76 262.76 290.76 262.22C290.76 261.68 290.34 261.25 289.82 261.25Z" id="bE8uJg4Nh"></path><path d="M291.07 213.64C291.59 213.64 292.02 213.21 292.02 212.67C292.02 212.13 291.59 211.7 291.07 211.7C290.55 211.7 290.13 212.13 290.13 212.67C290.13 213.21 290.55 213.64 291.07 213.64Z" id="bL2xbq3Oa"></path><path d="M291.07 162.79C291.59 162.79 292.02 162.36 292.02 161.82C292.02 161.28 291.59 160.85 291.07 160.85C290.55 160.85 290.13 161.28 290.13 161.82C290.13 162.36 290.55 162.79 291.07 162.79Z" id="d4L9iTiDY"></path><path d="M239.51 315.34C240.03 315.34 240.45 314.9 240.45 314.37C240.45 313.83 240.03 313.39 239.51 313.39C238.99 313.39 238.57 313.83 238.57 314.37C238.57 314.9 238.99 315.34 239.51 315.34Z" id="cI4kXJXos"></path><path d="M239.51 264.49C240.03 264.49 240.45 264.05 240.45 263.52C240.45 262.98 240.03 262.54 239.51 262.54C238.99 262.54 238.57 262.98 238.57 263.52C238.57 264.05 238.99 264.49 239.51 264.49Z" id="fU03MKY4c"></path><path d="M238.88 213.64C239.75 213.64 240.45 212.92 240.45 212.02C240.45 211.13 239.75 210.4 238.88 210.4C238.01 210.4 237.31 211.13 237.31 212.02C237.31 212.92 238.01 213.64 238.88 213.64Z" id="b2DuulN48C"></path><path d="M239.51 162.79C240.03 162.79 240.45 162.36 240.45 161.82C240.45 161.28 240.03 160.85 239.51 160.85C238.99 160.85 238.57 161.28 238.57 161.82C238.57 162.36 238.99 162.79 239.51 162.79Z" id="crn887aoT"></path><path d="M187.94 315.34C188.46 315.34 188.88 314.9 188.88 314.37C188.88 313.83 188.46 313.39 187.94 313.39C187.42 313.39 187 313.83 187 314.37C187 314.9 187.42 315.34 187.94 315.34Z" id="b30vXjtsaJ"></path><path d="M187.31 264.49C188.18 264.49 188.88 263.76 188.88 262.87C188.88 261.97 188.18 261.25 187.31 261.25C186.44 261.25 185.74 261.97 185.74 262.87C185.74 263.76 186.44 264.49 187.31 264.49Z" id="b1NXR1ihlP"></path><path d="M187.94 213.64C188.46 213.64 188.88 213.21 188.88 212.67C188.88 212.13 188.46 211.7 187.94 211.7C187.42 211.7 187 212.13 187 212.67C187 213.21 187.42 213.64 187.94 213.64Z" id="a56Q89ZQf1"></path><path d="M187.94 162.79C188.46 162.79 188.88 162.36 188.88 161.82C188.88 161.28 188.46 160.85 187.94 160.85C187.42 160.85 187 161.28 187 161.82C187 162.36 187.42 162.79 187.94 162.79Z" id="gk9W6xFNe"></path><path d="M136.37 315.34C136.89 315.34 137.31 314.9 137.31 314.37C137.31 313.83 136.89 313.39 136.37 313.39C135.85 313.39 135.43 313.83 135.43 314.37C135.43 314.9 135.85 315.34 136.37 315.34Z" id="b3slTkC8o1"></path><path d="M136.37 264.49C136.89 264.49 137.31 264.05 137.31 263.52C137.31 262.98 136.89 262.54 136.37 262.54C135.85 262.54 135.43 262.98 135.43 263.52C135.43 264.05 135.85 264.49 136.37 264.49Z" id="c1rUbZsyJ9"></path><path d="M136.37 213.64C136.89 213.64 137.31 213.21 137.31 212.67C137.31 212.13 136.89 211.7 136.37 211.7C135.85 211.7 135.43 212.13 135.43 212.67C135.43 213.21 135.85 213.64 136.37 213.64Z" id="bBbFjvzKQ"></path><path d="M136.37 162.79C136.89 162.79 137.31 162.36 137.31 161.82C137.31 161.28 136.89 160.85 136.37 160.85C135.85 160.85 135.43 161.28 135.43 161.82C135.43 162.36 135.85 162.79 136.37 162.79Z" id="a1mlQnBchV"></path><path d="M84.17 315.34C85.04 315.34 85.74 314.61 85.74 313.72C85.74 312.82 85.04 312.1 84.17 312.1C83.31 312.1 82.61 312.82 82.61 313.72C82.61 314.61 83.31 315.34 84.17 315.34Z" id="caW5DvasW"></path><path d="M84.8 264.49C85.32 264.49 85.74 264.05 85.74 263.52C85.74 262.98 85.32 262.54 84.8 262.54C84.28 262.54 83.86 262.98 83.86 263.52C83.86 264.05 84.28 264.49 84.8 264.49Z" id="b1tFUOxhnW"></path><path d="M84.8 213.64C85.32 213.64 85.74 213.21 85.74 212.67C85.74 212.13 85.32 211.7 84.8 211.7C84.28 211.7 83.86 212.13 83.86 212.67C83.86 213.21 84.28 213.64 84.8 213.64Z" id="aHSkpL7ND"></path><path d="M84.8 162.79C85.32 162.79 85.74 162.36 85.74 161.82C85.74 161.28 85.32 160.85 84.8 160.85C84.28 160.85 83.86 161.28 83.86 161.82C83.86 162.36 84.28 162.79 84.8 162.79Z" id="b1zHMFaYzS"></path><path d="M33.23 315.34C33.75 315.34 34.18 314.9 34.18 314.37C34.18 313.83 33.75 313.39 33.23 313.39C32.71 313.39 32.29 313.83 32.29 314.37C32.29 314.9 32.71 315.34 33.23 315.34Z" id="a2RnxIHHGV"></path><path d="M33.23 264.49C33.75 264.49 34.18 264.05 34.18 263.52C34.18 262.98 33.75 262.54 33.23 262.54C32.71 262.54 32.29 262.98 32.29 263.52C32.29 264.05 32.71 264.49 33.23 264.49Z" id="ahRHFuP8G"></path><path d="M32.61 213.64C33.47 213.64 34.18 212.92 34.18 212.02C34.18 211.13 33.47 210.4 32.61 210.4C31.74 210.4 31.04 211.13 31.04 212.02C31.04 212.92 31.74 213.64 32.61 213.64Z" id="chseeEBB3"></path><path d="M33.23 162.79C33.75 162.79 34.18 162.36 34.18 161.82C34.18 161.28 33.75 160.85 33.23 160.85C32.71 160.85 32.29 161.28 32.29 161.82C32.29 162.36 32.71 162.79 33.23 162.79Z" id="ajPrngAQv"></path><path d="M340.51 159.69C339.99 159.69 339.57 160.13 339.57 160.66C339.57 161.2 339.99 161.64 340.51 161.64C341.03 161.64 341.46 161.2 341.46 160.66C341.46 160.13 341.03 159.69 340.51 159.69Z" id="l72pgIiFGK"></path><path d="M341.77 213.78C342.29 213.78 342.71 213.35 342.71 212.81C342.71 212.27 342.29 211.84 341.77 211.84C341.25 211.84 340.83 212.27 340.83 212.81C340.83 213.35 341.25 213.78 341.77 213.78Z" id="a22crBr3xT"></path><path d="M340.51 261.39C339.99 261.39 339.57 261.82 339.57 262.36C339.57 262.9 339.99 263.33 340.51 263.33C341.03 263.33 341.46 262.9 341.46 262.36C341.46 261.82 341.03 261.39 340.51 261.39Z" id="auMPNR0uU"></path><path d="M340.51 312.24C339.99 312.24 339.57 312.67 339.57 313.21C339.57 313.75 339.99 314.18 340.51 314.18C341.03 314.18 341.46 313.75 341.46 313.21C341.46 312.67 341.03 312.24 340.51 312.24Z" id="j1Qru9VRkb"></path><path d="M392.08 159.69C391.56 159.69 391.14 160.13 391.14 160.66C391.14 161.2 391.56 161.64 392.08 161.64C392.6 161.64 393.02 161.2 393.02 160.66C393.02 160.13 392.6 159.69 392.08 159.69Z" id="a5m66dBsN"></path><path d="M392.08 210.54C391.56 210.54 391.14 210.98 391.14 211.51C391.14 212.05 391.56 212.49 392.08 212.49C392.6 212.49 393.02 212.05 393.02 211.51C393.02 210.98 392.6 210.54 392.08 210.54Z" id="a12aZRZxWu"></path><path d="M392.71 261.39C391.84 261.39 391.14 262.11 391.14 263.01C391.14 263.9 391.84 264.63 392.71 264.63C393.58 264.63 394.28 263.9 394.28 263.01C394.28 262.11 393.58 261.39 392.71 261.39Z" id="g2hGJpF0As"></path><path d="M392.08 312.24C391.56 312.24 391.14 312.67 391.14 313.21C391.14 313.75 391.56 314.18 392.08 314.18C392.6 314.18 393.02 313.75 393.02 313.21C393.02 312.67 392.6 312.24 392.08 312.24Z" id="kyJSz5hl"></path><path d="M443.65 159.69C443.13 159.69 442.71 160.13 442.71 160.66C442.71 161.2 443.13 161.64 443.65 161.64C444.17 161.64 444.59 161.2 444.59 160.66C444.59 160.13 444.17 159.69 443.65 159.69Z" id="d3hP60sWnP"></path><path d="M444.28 210.54C443.41 210.54 442.71 211.27 442.71 212.16C442.71 213.06 443.41 213.78 444.28 213.78C445.14 213.78 445.85 213.06 445.85 212.16C445.85 211.27 445.14 210.54 444.28 210.54Z" id="alwzNVGZz"></path><path d="M443.65 261.39C443.13 261.39 442.71 261.82 442.71 262.36C442.71 262.9 443.13 263.33 443.65 263.33C444.17 263.33 444.59 262.9 444.59 262.36C444.59 261.82 444.17 261.39 443.65 261.39Z" id="g2dx88OQLp"></path><path d="M443.65 312.24C443.13 312.24 442.71 312.67 442.71 313.21C442.71 313.75 443.13 314.18 443.65 314.18C444.17 314.18 444.59 313.75 444.59 313.21C444.59 312.67 444.17 312.24 443.65 312.24Z" id="jeAVZVJJN"></path><path d="M495.22 159.69C494.7 159.69 494.28 160.13 494.28 160.66C494.28 161.2 494.7 161.64 495.22 161.64C495.74 161.64 496.16 161.2 496.16 160.66C496.16 160.13 495.74 159.69 495.22 159.69Z" id="b1uyxcYFlo"></path><path d="M495.22 210.54C494.7 210.54 494.28 210.98 494.28 211.51C494.28 212.05 494.7 212.49 495.22 212.49C495.74 212.49 496.16 212.05 496.16 211.51C496.16 210.98 495.74 210.54 495.22 210.54Z" id="dFpgrmOaK"></path><path d="M495.22 261.39C494.7 261.39 494.28 261.82 494.28 262.36C494.28 262.9 494.7 263.33 495.22 263.33C495.74 263.33 496.16 262.9 496.16 262.36C496.16 261.82 495.74 261.39 495.22 261.39Z" id="lpFMc6znD"></path><path d="M495.22 312.24C494.7 312.24 494.28 312.67 494.28 313.21C494.28 313.75 494.7 314.18 495.22 314.18C495.74 314.18 496.16 313.75 496.16 313.21C496.16 312.67 495.74 312.24 495.22 312.24Z" id="e1pkvYuaS"></path><path d="M547.41 159.69C546.55 159.69 545.85 160.42 545.85 161.31C545.85 162.21 546.55 162.93 547.41 162.93C548.28 162.93 548.98 162.21 548.98 161.31C548.98 160.42 548.28 159.69 547.41 159.69Z" id="bhmCbHYYm"></path><path d="M546.79 210.54C546.27 210.54 545.85 210.98 545.85 211.51C545.85 212.05 546.27 212.49 546.79 212.49C547.31 212.49 547.73 212.05 547.73 211.51C547.73 210.98 547.31 210.54 546.79 210.54Z" id="a5rzFbI7L"></path><path d="M546.79 261.39C546.27 261.39 545.85 261.82 545.85 262.36C545.85 262.9 546.27 263.33 546.79 263.33C547.31 263.33 547.73 262.9 547.73 262.36C547.73 261.82 547.31 261.39 546.79 261.39Z" id="cvkR2jJO"></path><path d="M546.79 312.24C546.27 312.24 545.85 312.67 545.85 313.21C545.85 313.75 546.27 314.18 546.79 314.18C547.31 314.18 547.73 313.75 547.73 313.21C547.73 312.67 547.31 312.24 546.79 312.24Z" id="e2ppw1niBg"></path><path d="M598.35 159.69C597.83 159.69 597.41 160.13 597.41 160.66C597.41 161.2 597.83 161.64 598.35 161.64C598.87 161.64 599.3 161.2 599.3 160.66C599.3 160.13 598.87 159.69 598.35 159.69Z" id="eRKLkUtAI"></path><path d="M598.35 210.54C597.83 210.54 597.41 210.98 597.41 211.51C597.41 212.05 597.83 212.49 598.35 212.49C598.87 212.49 599.3 212.05 599.3 211.51C599.3 210.98 598.87 210.54 598.35 210.54Z" id="a6esuGGNq"></path><path d="M598.98 261.39C598.12 261.39 597.41 262.11 597.41 263.01C597.41 263.9 598.12 264.63 598.98 264.63C599.85 264.63 600.55 263.9 600.55 263.01C600.55 262.11 599.85 261.39 598.98 261.39Z" id="d20luF7Vbw"></path><path d="M598.35 312.24C597.83 312.24 597.41 312.67 597.41 313.21C597.41 313.75 597.83 314.18 598.35 314.18C598.87 314.18 599.3 313.75 599.3 313.21C599.3 312.67 598.87 312.24 598.35 312.24Z" id="a1umVG4iqS"></path><path d="M247.7 428.79C247.7 433.41 198.39 437.15 137.57 437.15C76.75 437.15 27.45 433.41 27.45 428.79C27.45 424.17 76.75 420.43 137.57 420.43C198.39 420.43 247.7 424.17 247.7 428.79Z" id="c46sCmb8B9"></path><path d="M111.63 137.93C130.79 129.77 154.66 134.94 177.97 138.52C178.19 134.18 180.82 128.9 178.07 125.87C174.72 122.19 175.03 118.33 177.04 114.44C182.19 104.49 174.81 93.91 167.36 85.12C163.96 81.11 158.84 78.96 153.59 79.34C152.22 79.44 141.18 80.23 139.8 80.32C132.92 80.82 127.07 85.52 125.12 92.14C125.12 92.14 125.12 92.14 125.12 92.14C121.83 96.62 120.06 101.09 121.17 105.53C116.24 108.9 115.41 112.97 117.63 117.56C119.51 120.45 119.49 123.27 117.54 126C114.99 129.49 113.03 133.38 111.75 137.51C111.73 137.59 111.65 137.84 111.63 137.93Z" id="bbrrBSlgn"></path><path d="M176.46 385.04C169.23 385.04 163.36 379.18 163.36 371.94C163.36 371.94 163.36 371.94 163.36 371.94C304.96 355.49 443.89 355.49 580.17 371.94C580.17 371.94 580.17 371.94 580.17 371.94C580.17 379.18 574.3 385.04 567.07 385.04C567.07 385.04 567.07 385.04 567.07 385.04C488.95 385.04 215.52 385.04 176.46 385.04Z" id="d2HtemkS4t"></path><path d="M580.17 372.71L163.36 371.94L211.67 290.66L211.9 290.28C211.9 182.8 211.9 123.09 211.9 111.14C211.9 102 219.31 94.59 228.45 94.59C228.45 94.59 228.46 94.59 228.46 94.59C256.89 94.59 484.33 94.59 512.76 94.59C521.9 94.59 529.32 102 529.32 111.14C529.32 111.14 529.32 111.14 529.32 111.14C529.32 123.17 529.32 183.29 529.32 291.51L580.17 372.71Z" id="gEG5FOVPl"></path><path d="M228.08 106.14C225.1 106.15 222.69 108.56 222.69 111.54C222.69 127.87 222.69 258.54 222.69 274.87C222.69 277.85 225.1 280.26 228.08 280.26C256.82 280.26 486.71 280.26 515.45 280.26C518.43 280.26 520.84 277.85 520.84 274.87C520.84 258.54 520.84 127.87 520.84 111.54C520.84 108.56 518.43 106.15 515.45 106.14C457.98 106.14 285.55 106.14 228.08 106.14Z" id="e1ymVxaQ"></path><path d="M229.28 301.83C228.38 301.84 227.56 302.36 227.18 303.18C225.7 306.41 213.79 332.3 212.3 335.54C211.77 336.7 212.27 338.07 213.43 338.6C213.74 338.74 214.06 338.81 214.4 338.81C245.7 338.81 496.11 338.81 527.41 338.81C528.69 338.81 529.72 337.78 529.72 336.5C529.72 336.14 529.64 335.79 529.48 335.47C527.86 332.23 514.92 306.35 513.3 303.11C512.91 302.33 512.11 301.83 511.23 301.83C454.84 301.83 285.67 301.83 229.28 301.83Z" id="a1owbCgev3"></path><path d="M370.61 96.51C368.69 96.51 367.14 98.07 367.14 99.98C367.14 101.9 368.69 103.45 370.61 103.45C372.52 103.45 374.08 101.9 374.08 99.98C374.08 98.07 372.52 96.51 370.61 96.51Z" id="a1VZUigam"></path><path d="M339.84 344.98C338.8 344.98 337.88 345.68 337.61 346.69C337.24 348.07 334.25 359.17 333.88 360.56C333.54 361.79 334.27 363.06 335.51 363.39C335.7 363.44 335.91 363.47 336.11 363.47C343.21 363.47 400.01 363.47 407.11 363.47C408.39 363.47 409.43 362.43 409.43 361.16C409.43 360.9 409.38 360.64 409.3 360.4C408.82 359.01 404.98 347.92 404.5 346.53C404.18 345.6 403.3 344.98 402.31 344.98C389.82 344.98 352.34 344.98 339.84 344.98Z" id="b1qZiZZQL"></path><path d="M529.32 290.66L211.67 290.66L211.91 290.28L211.91 287.58L529.32 287.58L529.32 287.58L529.32 290.66Z" id="a1ujlFAmZq"></path><path d="M260.72 224.86C258.45 224.86 256.61 223.02 256.61 220.75C256.61 215.24 256.61 171.17 256.61 165.66C256.61 163.39 258.45 161.55 260.72 161.54C282.93 161.54 460.6 161.54 482.81 161.54C485.08 161.55 486.92 163.39 486.92 165.66C486.92 171.17 486.92 215.24 486.92 220.75C486.92 223.02 485.08 224.86 482.81 224.86C438.39 224.86 282.93 224.86 260.72 224.86ZM260.72 163.19C259.36 163.19 258.25 164.3 258.25 165.66C258.25 171.17 258.25 215.24 258.25 220.75C258.25 222.11 259.36 223.21 260.72 223.22C282.93 223.22 460.6 223.22 482.81 223.22C484.17 223.21 485.28 222.11 485.28 220.75C485.28 215.24 485.28 171.17 485.28 165.66C485.28 164.3 484.17 163.19 482.81 163.19C438.39 163.19 305.14 163.19 260.72 163.19Z" id="eLQBjgKjf"></path><path d="M295.23 174.34C285.98 174.34 278.47 181.84 278.47 191.09C278.47 200.34 285.98 207.84 295.23 207.84C304.48 207.84 311.98 200.34 311.98 191.09C311.98 181.84 304.48 174.34 295.23 174.34Z" id="a24rVkKfuA"></path><path d="M333.92 179.92C332.38 179.92 331.13 181.17 331.12 182.71C331.12 184.25 332.37 185.5 333.91 185.5C333.91 185.5 333.92 185.5 333.92 185.5C347.08 185.5 452.39 185.5 465.55 185.5C467.1 185.5 468.35 184.25 468.35 182.71C468.35 181.17 467.1 179.92 465.55 179.92C439.23 179.92 360.25 179.92 333.92 179.92Z" id="c1gHu6KyxK"></path><path d="M333.92 196.67C332.38 196.67 331.13 197.92 331.13 199.47C331.13 201.01 332.38 202.26 333.92 202.26C333.92 202.26 333.92 202.26 333.92 202.26C339.58 202.26 384.9 202.26 390.56 202.26C392.1 202.26 393.35 201.01 393.35 199.47C393.35 197.92 392.1 196.67 390.56 196.67C390.56 196.67 390.56 196.67 390.56 196.67C379.23 196.67 345.25 196.67 333.92 196.67Z" id="cAILbHaYJ"></path><path d="M211.12 197.8L170.07 219.63C169.76 208.72 169.58 202.65 169.55 201.44C182.95 199.2 195.7 195.31 207.48 188.97C207.91 187.91 211.35 179.42 211.78 178.36C213.27 174.68 217.46 172.9 221.14 174.39C222.26 174.84 223.24 175.57 224 176.49C224 176.49 224 176.49 224 176.49C226.4 179.42 226.13 183.71 223.37 186.3C221.74 187.83 217.65 191.67 211.12 197.8Z" id="b4NraEOZX3"></path><path d="M110.81 323.82C110.2 321.6 110.58 319.23 111.83 317.3C112.73 315.91 119.95 304.84 120.85 303.46C125.27 296.67 134.11 294.34 141.3 298.06C141.3 298.06 141.3 298.06 141.3 298.06C137.51 304.51 138.04 310.17 142.61 315.09C135.51 318.56 128.95 323.03 123.14 328.37C119.45 330.88 114.44 329.93 111.93 326.25C111.42 325.51 111.04 324.69 110.81 323.82C110.81 323.82 110.81 323.82 110.81 323.82Z" id="abHDpXHRQ"></path><path d="M212.99 305.73C210.22 310.35 205.23 313.2 199.84 313.24C195.85 313.27 175.87 313.42 139.93 313.69L137.33 298.62L163.83 290.83L141.48 273.68L165.91 245.09C192.53 269.9 207.32 283.69 210.27 286.44C215.62 291.42 216.75 299.46 212.99 305.73C212.99 305.73 212.99 305.73 212.99 305.73Z" id="bu0ukI7es"></path><path d="M130.57 408.8C122.15 408.8 117.48 408.8 116.54 408.8C103.94 322.44 91.12 235.84 129.01 203.52C131.99 204 146.89 206.43 173.71 210.8L167.99 248.73L143.04 277.32L130.57 408.8Z" id="f1nabqlEuK"></path><path d="M142.91 428.36C140.68 428.96 138.31 428.59 136.38 427.33C134.86 427.13 122.67 425.49 121.14 425.29C114.36 420.87 112.03 412.03 115.75 404.84C115.75 404.84 115.75 404.84 115.75 404.84C122.2 408.63 127.86 408.1 132.78 403.53C136.25 410.55 141.98 410.12 147.45 416.03C149.96 419.71 149.01 424.73 145.33 427.24C144.59 427.74 143.77 428.12 142.91 428.36C142.91 428.36 142.91 428.36 142.91 428.36Z" id="a4cBJJZ4i"></path><path d="M137.85 139.6C142.16 130.76 142.52 120.94 140.45 110.5C142.21 110.44 156.35 110.03 158.11 109.98C158.67 122.96 160.34 135.09 163.83 145.83C158.63 144.59 140.45 140.22 137.85 139.6Z" id="b3uFSP36f7"></path><path d="M170.97 226.44C152.06 239.33 138.69 226.88 128.49 207.68C129.91 195.92 127.61 181.86 123.36 166.58C119.45 152.6 126.86 137.96 140.45 132.84C140.45 132.84 140.45 132.84 140.45 132.84C153.85 138.45 161.3 141.57 162.79 142.2C181.77 157.66 185.5 174.42 178.38 192.09C176.9 198.96 172.45 219.57 170.97 226.44Z" id="c2FDg8MHUh"></path><path d="M116.54 158.83L95.75 169.74L132.65 191.57C135.73 199.17 137.44 203.39 137.78 204.23C139.18 207.67 137.52 211.59 134.08 212.98C133.97 213.02 133.86 213.07 133.75 213.1C133.75 213.1 133.75 213.1 133.75 213.1C130.24 214.31 126.42 212.45 125.21 208.94C125.01 208.36 124.89 207.76 124.85 207.15C124.82 206.56 124.65 203.62 124.33 198.32C96.2 189.04 80.56 183.88 77.44 182.85C74.24 181.79 71.7 179.32 70.56 176.15C70.56 176.15 70.56 176.15 70.56 176.15C68.87 171.45 70.56 166.21 74.67 163.39C77.19 161.67 89.76 153.04 112.38 137.52L116.54 158.83Z" id="e7FVIawF4"></path><path d="M137.33 160.91C128.66 157.11 120.77 161.23 110.82 164.54C110.67 161.79 109.42 139.75 109.26 137C119.14 131.73 128.57 130.31 137.33 134.4C137.33 139.7 137.33 155.6 137.33 160.91Z" id="gfS0LLzgA"></path><path d="M147.7 90.44C138.54 90.44 131.11 97.87 131.11 107.03C131.11 116.19 138.54 123.62 147.7 123.62C156.86 123.62 164.29 116.19 164.29 107.03C164.29 97.87 156.86 90.44 147.7 90.44Z" id="b2CYkwbpfg"></path><path d="M167.54 104.94C151.12 106.54 138.6 103.86 130.6 96.21C130.6 95.8 130.6 93.75 130.6 90.05L166.15 90.05C166.89 97.99 167.36 102.95 167.54 104.94Z" id="akQvtIaTw"></path></defs><g><g><g><use xlink:href="#feVsZmRIX" opacity="1" fill="#ec083b" fill-opacity="1"></use><g><use xlink:href="#feVsZmRIX" opacity="1" fill-opacity="0" stroke="#000000" stroke-width="1" stroke-opacity="0"></use></g></g><g><use xlink:href="#a2xKZSPTt1" opacity="1" fill="#e6e6e6" fill-opacity="1"></use><g><use xlink:href="#a2xKZSPTt1" opacity="1" fill-opacity="0" stroke="#000000" stroke-width="1" stroke-opacity="0"></use></g></g><g><use xlink:href="#f7iRGe9mZZ" opacity="1" fill="#ffffff" fill-opacity="1"></use><g><use xlink:href="#f7iRGe9mZZ" opacity="1" fill-opacity="0" stroke="#000000" stroke-width="1" stroke-opacity="0"></use></g></g><g><use xlink:href="#e1WM3HxnU4" opacity="1" fill="#e6e6e6" fill-opacity="1"></use><g><use xlink:href="#e1WM3HxnU4" opacity="1" fill-opacity="0" stroke="#000000" stroke-width="1" stroke-opacity="0"></use></g></g><g><use xlink:href="#b5R9FjRR1T" opacity="1" fill="#e6e6e6" fill-opacity="1"></use><g><use xlink:href="#b5R9FjRR1T" opacity="1" fill-opacity="0" stroke="#000000" stroke-width="1" stroke-opacity="0"></use></g></g><g><use xlink:href="#dasplI80M" opacity="1" fill="#e6e6e6" fill-opacity="1"></use><g><use xlink:href="#dasplI80M" opacity="1" fill-opacity="0" stroke="#000000" stroke-width="1" stroke-opacity="0"></use></g></g><g><use xlink:href="#f3bLkOZaJl" opacity="1" fill="#e6e6e6" fill-opacity="1"></use><g><use xlink:href="#f3bLkOZaJl" opacity="1" fill-opacity="0" stroke="#000000" stroke-width="1" stroke-opacity="0"></use></g></g><g><use xlink:href="#abjWEPuaA" opacity="1" fill="#e6e6e6" fill-opacity="1"></use><g><use xlink:href="#abjWEPuaA" opacity="1" fill-opacity="0" stroke="#000000" stroke-width="1" stroke-opacity="0"></use></g></g><g><use xlink:href="#c3jxs8cRlW" opacity="1" fill="#e6e6e6" fill-opacity="1"></use><g><use xlink:href="#c3jxs8cRlW" opacity="1" fill-opacity="0" stroke="#000000" stroke-width="1" stroke-opacity="0"></use></g></g><g><use xlink:href="#dcK6tJpTs" opacity="1" fill="#e6e6e6" fill-opacity="1"></use><g><use xlink:href="#dcK6tJpTs" opacity="1" fill-opacity="0" stroke="#000000" stroke-width="1" stroke-opacity="0"></use></g></g><g><use xlink:href="#dp6EG7yw5" opacity="1" fill="#e6e6e6" fill-opacity="1"></use><g><use xlink:href="#dp6EG7yw5" opacity="1" fill-opacity="0" stroke="#000000" stroke-width="1" stroke-opacity="0"></use></g></g><g><use xlink:href="#c6jJFpV9Ge" opacity="1" fill="#e6e6e6" fill-opacity="1"></use><g><use xlink:href="#c6jJFpV9Ge" opacity="1" fill-opacity="0" stroke="#000000" stroke-width="1" stroke-opacity="0"></use></g></g><g><use xlink:href="#b2eXTH2juG" opacity="1" fill="#e6e6e6" fill-opacity="1"></use><g><use xlink:href="#b2eXTH2juG" opacity="1" fill-opacity="0" stroke="#000000" stroke-width="1" stroke-opacity="0"></use></g></g><g><use xlink:href="#d1evdr18PF" opacity="1" fill="#e6e6e6" fill-opacity="1"></use><g><use xlink:href="#d1evdr18PF" opacity="1" fill-opacity="0" stroke="#000000" stroke-width="1" stroke-opacity="0"></use></g></g><g><use xlink:href="#mhwUQDsYy" opacity="1" fill="#ffffff" fill-opacity="1"></use><g><use xlink:href="#mhwUQDsYy" opacity="1" fill-opacity="0" stroke="#000000" stroke-width="1" stroke-opacity="0"></use></g></g><g><use xlink:href="#b1Fw4Qkgeu" opacity="1" fill="#e6e6e6" fill-opacity="1"></use><g><use xlink:href="#b1Fw4Qkgeu" opacity="1" fill-opacity="0" stroke="#000000" stroke-width="1" stroke-opacity="0"></use></g></g><g><use xlink:href="#cD5sofWTY" opacity="1" fill="#e6e6e6" fill-opacity="1"></use><g><use xlink:href="#cD5sofWTY" opacity="1" fill-opacity="0" stroke="#000000" stroke-width="1" stroke-opacity="0"></use></g></g><g><use xlink:href="#bUo9aBO6j" opacity="1" fill="#e6e6e6" fill-opacity="1"></use><g><use xlink:href="#bUo9aBO6j" opacity="1" fill-opacity="0" stroke="#000000" stroke-width="1" stroke-opacity="0"></use></g></g><g><use xlink:href="#a2f4hmTAuQ" opacity="1" fill="#e6e6e6" fill-opacity="1"></use><g><use xlink:href="#a2f4hmTAuQ" opacity="1" fill-opacity="0" stroke="#000000" stroke-width="1" stroke-opacity="0"></use></g></g><g><use xlink:href="#d9cDsJJrI" opacity="1" fill="#e6e6e6" fill-opacity="1"></use><g><use xlink:href="#d9cDsJJrI" opacity="1" fill-opacity="0" stroke="#000000" stroke-width="1" stroke-opacity="0"></use></g></g><g><use xlink:href="#atNw0j3h" opacity="1" fill="#e6e6e6" fill-opacity="1"></use><g><use xlink:href="#atNw0j3h" opacity="1" fill-opacity="0" stroke="#000000" stroke-width="1" stroke-opacity="0"></use></g></g><g><use xlink:href="#f3KbFP2rbt" opacity="1" fill="#e6e6e6" fill-opacity="1"></use><g><use xlink:href="#f3KbFP2rbt" opacity="1" fill-opacity="0" stroke="#000000" stroke-width="1" stroke-opacity="0"></use></g></g><g><use xlink:href="#eWU2lm99r" opacity="1" fill="#e6e6e6" fill-opacity="1"></use><g><use xlink:href="#eWU2lm99r" opacity="1" fill-opacity="0" stroke="#000000" stroke-width="1" stroke-opacity="0"></use></g></g><g><use xlink:href="#gjz1qPDwo" opacity="1" fill="#e6e6e6" fill-opacity="1"></use><g><use xlink:href="#gjz1qPDwo" opacity="1" fill-opacity="0" stroke="#000000" stroke-width="1" stroke-opacity="0"></use></g></g><g><use xlink:href="#eSFQi1qUj" opacity="1" fill="#e6e6e6" fill-opacity="1"></use><g><use xlink:href="#eSFQi1qUj" opacity="1" fill-opacity="0" stroke="#000000" stroke-width="1" stroke-opacity="0"></use></g></g><g><use xlink:href="#a10qIJ8dPy" opacity="1" fill="#0fce91" fill-opacity="1"></use><g><use xlink:href="#a10qIJ8dPy" opacity="1" fill-opacity="0" stroke="#000000" stroke-width="1" stroke-opacity="0"></use></g></g><g><use xlink:href="#b5IrT5YObA" opacity="1" fill="#ffffff" fill-opacity="1"></use><g><use xlink:href="#b5IrT5YObA" opacity="1" fill-opacity="0" stroke="#000000" stroke-width="1" stroke-opacity="0"></use></g></g><g><use xlink:href="#a20qqN1GL2" opacity="1" fill="#0fce91" fill-opacity="1"></use><g><use xlink:href="#a20qqN1GL2" opacity="1" fill-opacity="0" stroke="#000000" stroke-width="1" stroke-opacity="0"></use></g></g><g><use xlink:href="#ePh78E2Ds" opacity="1" fill="#0fce91" fill-opacity="1"></use><g><use xlink:href="#ePh78E2Ds" opacity="1" fill-opacity="0" stroke="#000000" stroke-width="1" stroke-opacity="0"></use></g></g><g><use xlink:href="#e1AwJ5tOc" opacity="1" fill="#0fce91" fill-opacity="1"></use><g><use xlink:href="#e1AwJ5tOc" opacity="1" fill-opacity="0" stroke="#000000" stroke-width="1" stroke-opacity="0"></use></g></g><g><use xlink:href="#e1aF5IyILk" opacity="1" fill="#0fce91" fill-opacity="1"></use><g><use xlink:href="#e1aF5IyILk" opacity="1" fill-opacity="0" stroke="#000000" stroke-width="1" stroke-opacity="0"></use></g></g><g><use xlink:href="#b1mlw92ceB" opacity="1" fill="#0fce91" fill-opacity="1"></use><g><use xlink:href="#b1mlw92ceB" opacity="1" fill-opacity="0" stroke="#000000" stroke-width="1" stroke-opacity="0"></use></g></g><g><use xlink:href="#d4pycMXZXW" opacity="1" fill="#0fce91" fill-opacity="1"></use><g><use xlink:href="#d4pycMXZXW" opacity="1" fill-opacity="0" stroke="#000000" stroke-width="1" stroke-opacity="0"></use></g></g><g><use xlink:href="#e26hAd3Hqk" opacity="1" fill="#0fce91" fill-opacity="1"></use><g><use xlink:href="#e26hAd3Hqk" opacity="1" fill-opacity="0" stroke="#000000" stroke-width="1" stroke-opacity="0"></use></g></g><g><use xlink:href="#a5i5cv4ibh" opacity="1" fill="#0fce91" fill-opacity="1"></use><g><use xlink:href="#a5i5cv4ibh" opacity="1" fill-opacity="0" stroke="#000000" stroke-width="1" stroke-opacity="0"></use></g></g><g><use xlink:href="#c3voUCzY3L" opacity="1" fill="#0fce91" fill-opacity="1"></use><g><use xlink:href="#c3voUCzY3L" opacity="1" fill-opacity="0" stroke="#000000" stroke-width="1" stroke-opacity="0"></use></g></g><g><use xlink:href="#fYO0YfWR" opacity="1" fill="#e6e6e6" fill-opacity="1"></use><g><use xlink:href="#fYO0YfWR" opacity="1" fill-opacity="0" stroke="#000000" stroke-width="1" stroke-opacity="0"></use></g></g><g><use xlink:href="#bixoE0b5Z" opacity="1" fill="#ffffff" fill-opacity="1"></use><g><use xlink:href="#bixoE0b5Z" opacity="1" fill-opacity="0" stroke="#000000" stroke-width="1" stroke-opacity="0"></use></g></g><g><use xlink:href="#a4xsnR2kEF" opacity="1" fill="#ffffff" fill-opacity="1"></use><g><use xlink:href="#a4xsnR2kEF" opacity="1" fill-opacity="0" stroke="#000000" stroke-width="1" stroke-opacity="0"></use></g></g></g><g><g><use xlink:href="#bztn4eb3J" opacity="1" fill="#f2f2f2" fill-opacity="1"></use><g><use xlink:href="#bztn4eb3J" opacity="1" fill-opacity="0" stroke="#000000" stroke-width="1" stroke-opacity="0"></use></g></g><g><use xlink:href="#g4DpJMGRgd" opacity="1" fill="#413939" fill-opacity="1"></use><g><use xlink:href="#g4DpJMGRgd" opacity="1" fill-opacity="0" stroke="#000000" stroke-width="1" stroke-opacity="0"></use></g></g><g><use xlink:href="#cjd85uYAt" opacity="1" fill="#d93025" fill-opacity="1"></use><g><use xlink:href="#cjd85uYAt" opacity="1" fill-opacity="0" stroke="#000000" stroke-width="1" stroke-opacity="0"></use></g></g><g><use xlink:href="#aoLoGLi1I" opacity="1" fill="#636161" fill-opacity="1"></use><g><use xlink:href="#aoLoGLi1I" opacity="1" fill-opacity="0" stroke="#000000" stroke-width="1" stroke-opacity="0"></use></g></g><g><use xlink:href="#g1atEkKRde" opacity="1" fill="#a0c5f3" fill-opacity="1"></use><g><use xlink:href="#g1atEkKRde" opacity="1" fill-opacity="0" stroke="#000000" stroke-width="1" stroke-opacity="0"></use></g></g><g><use xlink:href="#a1YmhS4et" opacity="1" fill="#000000" fill-opacity="1"></use><g><use xlink:href="#a1YmhS4et" opacity="1" fill-opacity="0" stroke="#000000" stroke-width="1" stroke-opacity="0"></use></g></g><g><use xlink:href="#e24PO6b25a" opacity="1" fill="#e3e3e3" fill-opacity="1"></use><g><use xlink:href="#e24PO6b25a" opacity="1" fill-opacity="0" stroke="#000000" stroke-width="1" stroke-opacity="0"></use></g></g><g><use xlink:href="#aRvpScVcw" opacity="1" fill="#b07c7c" fill-opacity="1"></use><g><use xlink:href="#aRvpScVcw" opacity="1" fill-opacity="0" stroke="#000000" stroke-width="1" stroke-opacity="0"></use></g></g><g><use xlink:href="#d1bH2RM6BH" opacity="1" fill="#8a7c7c" fill-opacity="1"></use><g><use xlink:href="#d1bH2RM6BH" opacity="1" fill-opacity="0" stroke="#000000" stroke-width="1" stroke-opacity="0"></use></g></g><g><use xlink:href="#d4DszmYmX" opacity="1" fill="#f2f2f2" fill-opacity="1"></use><g><use xlink:href="#d4DszmYmX" opacity="1" fill-opacity="0" stroke="#000000" stroke-width="1" stroke-opacity="0"></use></g></g><g><use xlink:href="#asYMirVEW" opacity="1" fill="#d93025" fill-opacity="1"></use><g><use xlink:href="#asYMirVEW" opacity="1" fill-opacity="0" stroke="#000000" stroke-width="1" stroke-opacity="0"></use></g></g><g><use xlink:href="#f8532rtD" opacity="1" fill="#f2f2f2" fill-opacity="1"></use><g><use xlink:href="#f8532rtD" opacity="1" fill-opacity="0" stroke="#000000" stroke-width="1" stroke-opacity="0"></use></g></g><g><use xlink:href="#a8P7X2wcys" opacity="1" fill="#440101" fill-opacity="1"></use><g><use xlink:href="#a8P7X2wcys" opacity="1" fill-opacity="0" stroke="#000000" stroke-width="1" stroke-opacity="0"></use></g></g><g><use xlink:href="#csAkKS207" opacity="1" fill="#ffabab" fill-opacity="1"></use><g><use xlink:href="#csAkKS207" opacity="1" fill-opacity="0" stroke="#000000" stroke-width="1" stroke-opacity="0"></use></g></g><g><use xlink:href="#aJJaxSKEj" opacity="1" fill="#b7b1b1" fill-opacity="1"></use><g><use xlink:href="#aJJaxSKEj" opacity="1" fill-opacity="0" stroke="#000000" stroke-width="1" stroke-opacity="0"></use></g></g><g><use xlink:href="#ai0naVsuz" opacity="1" fill="#955b32" fill-opacity="1"></use></g><g><use xlink:href="#ek5SobDCF" opacity="1" fill="#f2f2f2" fill-opacity="1"></use><g><use xlink:href="#ek5SobDCF" opacity="1" fill-opacity="0" stroke="#000000" stroke-width="1" stroke-opacity="0"></use></g></g><g><use xlink:href="#c63E0nJ2c" opacity="1" fill="#d93025" fill-opacity="1"></use></g><g><use xlink:href="#b4f8NYGzyE" opacity="1" fill="#000000" fill-opacity="1"></use><g><use xlink:href="#b4f8NYGzyE" opacity="1" fill-opacity="0" stroke="#000000" stroke-width="1" stroke-opacity="0"></use></g></g><g><use xlink:href="#ak6JNjUFy" opacity="1" fill="#0953ff" fill-opacity="1"></use></g><g><use xlink:href="#d1b8sDkNXN" opacity="1" fill="#b8b7f3" fill-opacity="1"></use><g><use xlink:href="#d1b8sDkNXN" opacity="1" fill-opacity="0" stroke="#000000" stroke-width="1" stroke-opacity="0"></use></g></g><g><use xlink:href="#bVw6VtB1T" opacity="1" fill="#0057ff" fill-opacity="1"></use><g><use xlink:href="#bVw6VtB1T" opacity="1" fill-opacity="0" stroke="#000000" stroke-width="1" stroke-opacity="0"></use></g></g><g><use xlink:href="#b7qpjedrha" opacity="1" fill="#f2f2f2" fill-opacity="1"></use><g><use xlink:href="#b7qpjedrha" opacity="1" fill-opacity="0" stroke="#000000" stroke-width="1" stroke-opacity="0"></use></g></g><g><g><filter id="shadow7010052" x="23.29" y="339.05" width="20.88" height="20.94" filterUnits="userSpaceOnUse" primitiveUnits="userSpaceOnUse"><feFlood></feFlood><feComposite in2="SourceAlpha" operator="in"></feComposite><feGaussianBlur stdDeviation="1"></feGaussianBlur><feOffset dx="1" dy="1" result="afterOffset"></feOffset><feFlood flood-color="#ffffff" flood-opacity="0.5"></feFlood><feComposite in2="afterOffset" operator="in"></feComposite><feMorphology operator="dilate" radius="1"></feMorphology><feComposite in2="SourceAlpha" operator="out"></feComposite></filter><path d="M33.23 349.99C33.75 349.99 34.18 349.56 34.18 349.02C34.18 348.48 33.75 348.05 33.23 348.05C32.71 348.05 32.29 348.48 32.29 349.02C32.29 349.56 32.71 349.99 33.23 349.99Z" id="a406ozS8s2" fill="white" fill-opacity="1" filter="url(#shadow7010052)"></path></g><use xlink:href="#b2ZOvDWXxT" opacity="1" fill="#0953ff" fill-opacity="1"></use></g><g><use xlink:href="#a5Sf0vHxKr" opacity="1" fill="#f2f2f2" fill-opacity="1"></use><g><use xlink:href="#a5Sf0vHxKr" opacity="1" fill-opacity="0" stroke="#000000" stroke-width="1" stroke-opacity="0"></use></g></g><g><use xlink:href="#c8isHCEHu" opacity="1" fill="#413939" fill-opacity="1"></use><g><use xlink:href="#c8isHCEHu" opacity="1" fill-opacity="0" stroke="#000000" stroke-width="1" stroke-opacity="0"></use></g></g><g><use xlink:href="#anndUK1qJ" opacity="1" fill="#d93025" fill-opacity="1"></use><g><use xlink:href="#anndUK1qJ" opacity="1" fill-opacity="0" stroke="#000000" stroke-width="1" stroke-opacity="0"></use></g></g><g><use xlink:href="#hbrnFhGct" opacity="1" fill="#636161" fill-opacity="1"></use><g><use xlink:href="#hbrnFhGct" opacity="1" fill-opacity="0" stroke="#000000" stroke-width="1" stroke-opacity="0"></use></g></g><g><use xlink:href="#d1qpPx5q5s" opacity="1" fill="#a0c5f3" fill-opacity="1"></use><g><use xlink:href="#d1qpPx5q5s" opacity="1" fill-opacity="0" stroke="#000000" stroke-width="1" stroke-opacity="0"></use></g></g><g><use xlink:href="#adda881Pu" opacity="1" fill="#000000" fill-opacity="1"></use><g><use xlink:href="#adda881Pu" opacity="1" fill-opacity="0" stroke="#000000" stroke-width="1" stroke-opacity="0"></use></g></g><g><use xlink:href="#a1f6ZAtjiM" opacity="1" fill="#e3e3e3" fill-opacity="1"></use><g><use xlink:href="#a1f6ZAtjiM" opacity="1" fill-opacity="0" stroke="#000000" stroke-width="1" stroke-opacity="0"></use></g></g><g><use xlink:href="#a37mJ4MgcJ" opacity="1" fill="#b07c7c" fill-opacity="1"></use><g><use xlink:href="#a37mJ4MgcJ" opacity="1" fill-opacity="0" stroke="#000000" stroke-width="1" stroke-opacity="0"></use></g></g><g><use xlink:href="#a4wTw2Irh" opacity="1" fill="#8a7c7c" fill-opacity="1"></use><g><use xlink:href="#a4wTw2Irh" opacity="1" fill-opacity="0" stroke="#000000" stroke-width="1" stroke-opacity="0"></use></g></g><g><use xlink:href="#c1lhEhApWy" opacity="1" fill="#f2f2f2" fill-opacity="1"></use><g><use xlink:href="#c1lhEhApWy" opacity="1" fill-opacity="0" stroke="#000000" stroke-width="1" stroke-opacity="0"></use></g></g><g><use xlink:href="#c7flCbztY" opacity="1" fill="#d93025" fill-opacity="1"></use><g><use xlink:href="#c7flCbztY" opacity="1" fill-opacity="0" stroke="#000000" stroke-width="1" stroke-opacity="0"></use></g></g><g><use xlink:href="#a185QIxuD7" opacity="1" fill="#f2f2f2" fill-opacity="1"></use><g><use xlink:href="#a185QIxuD7" opacity="1" fill-opacity="0" stroke="#000000" stroke-width="1" stroke-opacity="0"></use></g></g><g><use xlink:href="#bRDRHFvY2" opacity="1" fill="#440101" fill-opacity="1"></use><g><use xlink:href="#bRDRHFvY2" opacity="1" fill-opacity="0" stroke="#000000" stroke-width="1" stroke-opacity="0"></use></g></g><g><use xlink:href="#g1cKE9t1fy" opacity="1" fill="#ffabab" fill-opacity="1"></use><g><use xlink:href="#g1cKE9t1fy" opacity="1" fill-opacity="0" stroke="#000000" stroke-width="1" stroke-opacity="0"></use></g></g><g><use xlink:href="#bkvqXJLvj" opacity="1" fill="#b7b1b1" fill-opacity="1"></use><g><use xlink:href="#bkvqXJLvj" opacity="1" fill-opacity="0" stroke="#000000" stroke-width="1" stroke-opacity="0"></use></g></g><g><use xlink:href="#f2kpUmw25" opacity="1" fill="#955b32" fill-opacity="1"></use></g><g><use xlink:href="#c1Db7Gfjit" opacity="1" fill="#f2f2f2" fill-opacity="1"></use><g><use xlink:href="#c1Db7Gfjit" opacity="1" fill-opacity="0" stroke="#000000" stroke-width="1" stroke-opacity="0"></use></g></g><g><use xlink:href="#e5P9rLhqn3" opacity="1" fill="#d93025" fill-opacity="1"></use></g><g><use xlink:href="#a3HRZ8kEnd" opacity="1" fill="#000000" fill-opacity="1"></use><g><use xlink:href="#a3HRZ8kEnd" opacity="1" fill-opacity="0" stroke="#000000" stroke-width="1" stroke-opacity="0"></use></g></g><g><use xlink:href="#a2jV7Th55" opacity="1" fill="#0953ff" fill-opacity="1"></use></g><g><use xlink:href="#ajnWGil6y" opacity="1" fill="#b8b7f3" fill-opacity="1"></use><g><use xlink:href="#ajnWGil6y" opacity="1" fill-opacity="0" stroke="#000000" stroke-width="1" stroke-opacity="0"></use></g></g><g><use xlink:href="#b24LfD8wQ0" opacity="1" fill="#0057ff" fill-opacity="1"></use><g><use xlink:href="#b24LfD8wQ0" opacity="1" fill-opacity="0" stroke="#000000" stroke-width="1" stroke-opacity="0"></use></g></g><g><use xlink:href="#a2eQ8fZhx2" opacity="1" fill="#f2f2f2" fill-opacity="1"></use><g><use xlink:href="#a2eQ8fZhx2" opacity="1" fill-opacity="0" stroke="#000000" stroke-width="1" stroke-opacity="0"></use></g></g><g><g><filter id="shadow12967462" x="588.41" y="490.44" width="20.88" height="20.94" filterUnits="userSpaceOnUse" primitiveUnits="userSpaceOnUse"><feFlood></feFlood><feComposite in2="SourceAlpha" operator="in"></feComposite><feGaussianBlur stdDeviation="1"></feGaussianBlur><feOffset dx="1" dy="1" result="afterOffset"></feOffset><feFlood flood-color="#ffffff" flood-opacity="0.5"></feFlood><feComposite in2="afterOffset" operator="in"></feComposite><feMorphology operator="dilate" radius="1"></feMorphology><feComposite in2="SourceAlpha" operator="out"></feComposite></filter><path d="M598.35 499.44C597.83 499.44 597.41 499.87 597.41 500.41C597.41 500.95 597.83 501.38 598.35 501.38C598.87 501.38 599.3 500.95 599.3 500.41C599.3 499.87 598.87 499.44 598.35 499.44Z" id="c2SEvQHeQ" fill="white" fill-opacity="1" filter="url(#shadow12967462)"></path></g><use xlink:href="#b2N65MnSRO" opacity="1" fill="#0953ff" fill-opacity="1"></use></g><g><use xlink:href="#b6yh0guuaF" opacity="1" fill="#f2f2f2" fill-opacity="1"></use><g><use xlink:href="#b6yh0guuaF" opacity="1" fill-opacity="0" stroke="#000000" stroke-width="1" stroke-opacity="0"></use></g></g><g><use xlink:href="#bE8uJg4Nh" opacity="1" fill="#413939" fill-opacity="1"></use><g><use xlink:href="#bE8uJg4Nh" opacity="1" fill-opacity="0" stroke="#000000" stroke-width="1" stroke-opacity="0"></use></g></g><g><use xlink:href="#bL2xbq3Oa" opacity="1" fill="#d93025" fill-opacity="1"></use><g><use xlink:href="#bL2xbq3Oa" opacity="1" fill-opacity="0" stroke="#000000" stroke-width="1" stroke-opacity="0"></use></g></g><g><use xlink:href="#d4L9iTiDY" opacity="1" fill="#636161" fill-opacity="1"></use><g><use xlink:href="#d4L9iTiDY" opacity="1" fill-opacity="0" stroke="#000000" stroke-width="1" stroke-opacity="0"></use></g></g><g><use xlink:href="#cI4kXJXos" opacity="1" fill="#a0c5f3" fill-opacity="1"></use><g><use xlink:href="#cI4kXJXos" opacity="1" fill-opacity="0" stroke="#000000" stroke-width="1" stroke-opacity="0"></use></g></g><g><use xlink:href="#fU03MKY4c" opacity="1" fill="#000000" fill-opacity="1"></use><g><use xlink:href="#fU03MKY4c" opacity="1" fill-opacity="0" stroke="#000000" stroke-width="1" stroke-opacity="0"></use></g></g><g><use xlink:href="#b2DuulN48C" opacity="1" fill="#e3e3e3" fill-opacity="1"></use><g><use xlink:href="#b2DuulN48C" opacity="1" fill-opacity="0" stroke="#000000" stroke-width="1" stroke-opacity="0"></use></g></g><g><use xlink:href="#crn887aoT" opacity="1" fill="#b07c7c" fill-opacity="1"></use><g><use xlink:href="#crn887aoT" opacity="1" fill-opacity="0" stroke="#000000" stroke-width="1" stroke-opacity="0"></use></g></g><g><use xlink:href="#b30vXjtsaJ" opacity="1" fill="#8a7c7c" fill-opacity="1"></use><g><use xlink:href="#b30vXjtsaJ" opacity="1" fill-opacity="0" stroke="#000000" stroke-width="1" stroke-opacity="0"></use></g></g><g><use xlink:href="#b1NXR1ihlP" opacity="1" fill="#f2f2f2" fill-opacity="1"></use><g><use xlink:href="#b1NXR1ihlP" opacity="1" fill-opacity="0" stroke="#000000" stroke-width="1" stroke-opacity="0"></use></g></g><g><use xlink:href="#a56Q89ZQf1" opacity="1" fill="#d93025" fill-opacity="1"></use><g><use xlink:href="#a56Q89ZQf1" opacity="1" fill-opacity="0" stroke="#000000" stroke-width="1" stroke-opacity="0"></use></g></g><g><use xlink:href="#gk9W6xFNe" opacity="1" fill="#f2f2f2" fill-opacity="1"></use><g><use xlink:href="#gk9W6xFNe" opacity="1" fill-opacity="0" stroke="#000000" stroke-width="1" stroke-opacity="0"></use></g></g><g><use xlink:href="#b3slTkC8o1" opacity="1" fill="#440101" fill-opacity="1"></use><g><use xlink:href="#b3slTkC8o1" opacity="1" fill-opacity="0" stroke="#000000" stroke-width="1" stroke-opacity="0"></use></g></g><g><use xlink:href="#c1rUbZsyJ9" opacity="1" fill="#ffabab" fill-opacity="1"></use><g><use xlink:href="#c1rUbZsyJ9" opacity="1" fill-opacity="0" stroke="#000000" stroke-width="1" stroke-opacity="0"></use></g></g><g><use xlink:href="#bBbFjvzKQ" opacity="1" fill="#b7b1b1" fill-opacity="1"></use><g><use xlink:href="#bBbFjvzKQ" opacity="1" fill-opacity="0" stroke="#000000" stroke-width="1" stroke-opacity="0"></use></g></g><g><use xlink:href="#a1mlQnBchV" opacity="1" fill="#955b32" fill-opacity="1"></use></g><g><use xlink:href="#caW5DvasW" opacity="1" fill="#f2f2f2" fill-opacity="1"></use><g><use xlink:href="#caW5DvasW" opacity="1" fill-opacity="0" stroke="#000000" stroke-width="1" stroke-opacity="0"></use></g></g><g><use xlink:href="#b1tFUOxhnW" opacity="1" fill="#d93025" fill-opacity="1"></use></g><g><use xlink:href="#aHSkpL7ND" opacity="1" fill="#000000" fill-opacity="1"></use><g><use xlink:href="#aHSkpL7ND" opacity="1" fill-opacity="0" stroke="#000000" stroke-width="1" stroke-opacity="0"></use></g></g><g><use xlink:href="#b1zHMFaYzS" opacity="1" fill="#0953ff" fill-opacity="1"></use></g><g><use xlink:href="#a2RnxIHHGV" opacity="1" fill="#b8b7f3" fill-opacity="1"></use><g><use xlink:href="#a2RnxIHHGV" opacity="1" fill-opacity="0" stroke="#000000" stroke-width="1" stroke-opacity="0"></use></g></g><g><use xlink:href="#ahRHFuP8G" opacity="1" fill="#0057ff" fill-opacity="1"></use><g><use xlink:href="#ahRHFuP8G" opacity="1" fill-opacity="0" stroke="#000000" stroke-width="1" stroke-opacity="0"></use></g></g><g><use xlink:href="#chseeEBB3" opacity="1" fill="#f2f2f2" fill-opacity="1"></use><g><use xlink:href="#chseeEBB3" opacity="1" fill-opacity="0" stroke="#000000" stroke-width="1" stroke-opacity="0"></use></g></g><g><g><filter id="shadow11396702" x="23.29" y="151.85" width="20.88" height="20.94" filterUnits="userSpaceOnUse" primitiveUnits="userSpaceOnUse"><feFlood></feFlood><feComposite in2="SourceAlpha" operator="in"></feComposite><feGaussianBlur stdDeviation="1"></feGaussianBlur><feOffset dx="1" dy="1" result="afterOffset"></feOffset><feFlood flood-color="#ffffff" flood-opacity="0.5"></feFlood><feComposite in2="afterOffset" operator="in"></feComposite><feMorphology operator="dilate" radius="1"></feMorphology><feComposite in2="SourceAlpha" operator="out"></feComposite></filter><path d="M33.23 162.79C33.75 162.79 34.18 162.36 34.18 161.82C34.18 161.28 33.75 160.85 33.23 160.85C32.71 160.85 32.29 161.28 32.29 161.82C32.29 162.36 32.71 162.79 33.23 162.79Z" id="e2pPkyM2BP" fill="white" fill-opacity="1" filter="url(#shadow11396702)"></path></g><use xlink:href="#ajPrngAQv" opacity="1" fill="#0953ff" fill-opacity="1"></use></g><g><use xlink:href="#l72pgIiFGK" opacity="1" fill="#f2f2f2" fill-opacity="1"></use><g><use xlink:href="#l72pgIiFGK" opacity="1" fill-opacity="0" stroke="#000000" stroke-width="1" stroke-opacity="0"></use></g></g><g><use xlink:href="#a22crBr3xT" opacity="1" fill="#413939" fill-opacity="1"></use><g><use xlink:href="#a22crBr3xT" opacity="1" fill-opacity="0" stroke="#000000" stroke-width="1" stroke-opacity="0"></use></g></g><g><use xlink:href="#auMPNR0uU" opacity="1" fill="#d93025" fill-opacity="1"></use><g><use xlink:href="#auMPNR0uU" opacity="1" fill-opacity="0" stroke="#000000" stroke-width="1" stroke-opacity="0"></use></g></g><g><use xlink:href="#j1Qru9VRkb" opacity="1" fill="#636161" fill-opacity="1"></use><g><use xlink:href="#j1Qru9VRkb" opacity="1" fill-opacity="0" stroke="#000000" stroke-width="1" stroke-opacity="0"></use></g></g><g><use xlink:href="#a5m66dBsN" opacity="1" fill="#a0c5f3" fill-opacity="1"></use><g><use xlink:href="#a5m66dBsN" opacity="1" fill-opacity="0" stroke="#000000" stroke-width="1" stroke-opacity="0"></use></g></g><g><use xlink:href="#a12aZRZxWu" opacity="1" fill="#000000" fill-opacity="1"></use><g><use xlink:href="#a12aZRZxWu" opacity="1" fill-opacity="0" stroke="#000000" stroke-width="1" stroke-opacity="0"></use></g></g><g><use xlink:href="#g2hGJpF0As" opacity="1" fill="#e3e3e3" fill-opacity="1"></use><g><use xlink:href="#g2hGJpF0As" opacity="1" fill-opacity="0" stroke="#000000" stroke-width="1" stroke-opacity="0"></use></g></g><g><use xlink:href="#kyJSz5hl" opacity="1" fill="#b07c7c" fill-opacity="1"></use><g><use xlink:href="#kyJSz5hl" opacity="1" fill-opacity="0" stroke="#000000" stroke-width="1" stroke-opacity="0"></use></g></g><g><use xlink:href="#d3hP60sWnP" opacity="1" fill="#8a7c7c" fill-opacity="1"></use><g><use xlink:href="#d3hP60sWnP" opacity="1" fill-opacity="0" stroke="#000000" stroke-width="1" stroke-opacity="0"></use></g></g><g><use xlink:href="#alwzNVGZz" opacity="1" fill="#f2f2f2" fill-opacity="1"></use><g><use xlink:href="#alwzNVGZz" opacity="1" fill-opacity="0" stroke="#000000" stroke-width="1" stroke-opacity="0"></use></g></g><g><use xlink:href="#g2dx88OQLp" opacity="1" fill="#d93025" fill-opacity="1"></use><g><use xlink:href="#g2dx88OQLp" opacity="1" fill-opacity="0" stroke="#000000" stroke-width="1" stroke-opacity="0"></use></g></g><g><use xlink:href="#jeAVZVJJN" opacity="1" fill="#f2f2f2" fill-opacity="1"></use><g><use xlink:href="#jeAVZVJJN" opacity="1" fill-opacity="0" stroke="#000000" stroke-width="1" stroke-opacity="0"></use></g></g><g><use xlink:href="#b1uyxcYFlo" opacity="1" fill="#440101" fill-opacity="1"></use><g><use xlink:href="#b1uyxcYFlo" opacity="1" fill-opacity="0" stroke="#000000" stroke-width="1" stroke-opacity="0"></use></g></g><g><use xlink:href="#dFpgrmOaK" opacity="1" fill="#ffabab" fill-opacity="1"></use><g><use xlink:href="#dFpgrmOaK" opacity="1" fill-opacity="0" stroke="#000000" stroke-width="1" stroke-opacity="0"></use></g></g><g><use xlink:href="#lpFMc6znD" opacity="1" fill="#b7b1b1" fill-opacity="1"></use><g><use xlink:href="#lpFMc6znD" opacity="1" fill-opacity="0" stroke="#000000" stroke-width="1" stroke-opacity="0"></use></g></g><g><use xlink:href="#e1pkvYuaS" opacity="1" fill="#955b32" fill-opacity="1"></use></g><g><use xlink:href="#bhmCbHYYm" opacity="1" fill="#f2f2f2" fill-opacity="1"></use><g><use xlink:href="#bhmCbHYYm" opacity="1" fill-opacity="0" stroke="#000000" stroke-width="1" stroke-opacity="0"></use></g></g><g><use xlink:href="#a5rzFbI7L" opacity="1" fill="#d93025" fill-opacity="1"></use></g><g><use xlink:href="#cvkR2jJO" opacity="1" fill="#000000" fill-opacity="1"></use><g><use xlink:href="#cvkR2jJO" opacity="1" fill-opacity="0" stroke="#000000" stroke-width="1" stroke-opacity="0"></use></g></g><g><use xlink:href="#e2ppw1niBg" opacity="1" fill="#0953ff" fill-opacity="1"></use></g><g><use xlink:href="#eRKLkUtAI" opacity="1" fill="#b8b7f3" fill-opacity="1"></use><g><use xlink:href="#eRKLkUtAI" opacity="1" fill-opacity="0" stroke="#000000" stroke-width="1" stroke-opacity="0"></use></g></g><g><use xlink:href="#a6esuGGNq" opacity="1" fill="#0057ff" fill-opacity="1"></use><g><use xlink:href="#a6esuGGNq" opacity="1" fill-opacity="0" stroke="#000000" stroke-width="1" stroke-opacity="0"></use></g></g><g><use xlink:href="#d20luF7Vbw" opacity="1" fill="#f2f2f2" fill-opacity="1"></use><g><use xlink:href="#d20luF7Vbw" opacity="1" fill-opacity="0" stroke="#000000" stroke-width="1" stroke-opacity="0"></use></g></g><g><g><filter id="shadow11976038" x="588.41" y="303.24" width="20.88" height="20.94" filterUnits="userSpaceOnUse" primitiveUnits="userSpaceOnUse"><feFlood></feFlood><feComposite in2="SourceAlpha" operator="in"></feComposite><feGaussianBlur stdDeviation="1"></feGaussianBlur><feOffset dx="1" dy="1" result="afterOffset"></feOffset><feFlood flood-color="#ffffff" flood-opacity="0.5"></feFlood><feComposite in2="afterOffset" operator="in"></feComposite><feMorphology operator="dilate" radius="1"></feMorphology><feComposite in2="SourceAlpha" operator="out"></feComposite></filter><path d="M598.35 312.24C597.83 312.24 597.41 312.67 597.41 313.21C597.41 313.75 597.83 314.18 598.35 314.18C598.87 314.18 599.3 313.75 599.3 313.21C599.3 312.67 598.87 312.24 598.35 312.24Z" id="a1JAzDO6x2" fill="white" fill-opacity="1" filter="url(#shadow11976038)"></path></g><use xlink:href="#a1umVG4iqS" opacity="1" fill="#0953ff" fill-opacity="1"></use></g></g><g><use xlink:href="#c46sCmb8B9" opacity="1" fill="#e6e6e6" fill-opacity="1"></use><g><use xlink:href="#c46sCmb8B9" opacity="1" fill-opacity="0" stroke="#000000" stroke-width="1" stroke-opacity="0"></use></g></g><g><use xlink:href="#bbrrBSlgn" opacity="1" fill="#2f2e41" fill-opacity="1"></use><g><use xlink:href="#bbrrBSlgn" opacity="1" fill-opacity="0" stroke="#000000" stroke-width="1" stroke-opacity="0"></use></g></g><g><use xlink:href="#d2HtemkS4t" opacity="1" fill="#2f2e41" fill-opacity="1"></use><g><use xlink:href="#d2HtemkS4t" opacity="1" fill-opacity="0" stroke="#000000" stroke-width="1" stroke-opacity="0"></use></g></g><g><use xlink:href="#gEG5FOVPl" opacity="1" fill="#3f3d56" fill-opacity="1"></use><g><use xlink:href="#gEG5FOVPl" opacity="1" fill-opacity="0" stroke="#000000" stroke-width="1" stroke-opacity="0"></use></g></g><g><use xlink:href="#e1ymVxaQ" opacity="1" fill="#ffffff" fill-opacity="1"></use><g><use xlink:href="#e1ymVxaQ" opacity="1" fill-opacity="0" stroke="#000000" stroke-width="1" stroke-opacity="0"></use></g></g><g><use xlink:href="#a1owbCgev3" opacity="1" fill="#2f2e41" fill-opacity="1"></use><g><use xlink:href="#a1owbCgev3" opacity="1" fill-opacity="0" stroke="#000000" stroke-width="1" stroke-opacity="0"></use></g></g><g><use xlink:href="#a1VZUigam" opacity="1" fill="#ffffff" fill-opacity="1"></use><g><use xlink:href="#a1VZUigam" opacity="1" fill-opacity="0" stroke="#000000" stroke-width="1" stroke-opacity="0"></use></g></g><g><use xlink:href="#b1qZiZZQL" opacity="1" fill="#2f2e41" fill-opacity="1"></use><g><use xlink:href="#b1qZiZZQL" opacity="1" fill-opacity="0" stroke="#000000" stroke-width="1" stroke-opacity="0"></use></g></g><g><use xlink:href="#a1ujlFAmZq" opacity="1" fill="#2f2e41" fill-opacity="1"></use><g><use xlink:href="#a1ujlFAmZq" opacity="1" fill-opacity="0" stroke="#000000" stroke-width="1" stroke-opacity="0"></use></g></g><g><use xlink:href="#eLQBjgKjf" opacity="1" fill="#e6e6e6" fill-opacity="1"></use><g><use xlink:href="#eLQBjgKjf" opacity="1" fill-opacity="0" stroke="#000000" stroke-width="1" stroke-opacity="0"></use></g></g><g><use xlink:href="#a24rVkKfuA" opacity="1" fill="#e6e6e6" fill-opacity="1"></use><g><use xlink:href="#a24rVkKfuA" opacity="1" fill-opacity="0" stroke="#000000" stroke-width="1" stroke-opacity="0"></use></g></g><g><use xlink:href="#c1gHu6KyxK" opacity="1" fill="#e6e6e6" fill-opacity="1"></use><g><use xlink:href="#c1gHu6KyxK" opacity="1" fill-opacity="0" stroke="#000000" stroke-width="1" stroke-opacity="0"></use></g></g><g><use xlink:href="#cAILbHaYJ" opacity="1" fill="#e6e6e6" fill-opacity="1"></use><g><use xlink:href="#cAILbHaYJ" opacity="1" fill-opacity="0" stroke="#000000" stroke-width="1" stroke-opacity="0"></use></g></g><g><use xlink:href="#b4NraEOZX3" opacity="1" fill="#ffb8b8" fill-opacity="1"></use><g><use xlink:href="#b4NraEOZX3" opacity="1" fill-opacity="0" stroke="#000000" stroke-width="1" stroke-opacity="0"></use></g></g><g><use xlink:href="#abHDpXHRQ" opacity="1" fill="#2f2e41" fill-opacity="1"></use><g><use xlink:href="#abHDpXHRQ" opacity="1" fill-opacity="0" stroke="#000000" stroke-width="1" stroke-opacity="0"></use></g></g><g><use xlink:href="#bu0ukI7es" opacity="1" fill="#2f2e41" fill-opacity="1"></use><g><use xlink:href="#bu0ukI7es" opacity="1" fill-opacity="0" stroke="#000000" stroke-width="1" stroke-opacity="0"></use></g></g><g><use xlink:href="#f1nabqlEuK" opacity="1" fill="#2f2e41" fill-opacity="1"></use><g><use xlink:href="#f1nabqlEuK" opacity="1" fill-opacity="0" stroke="#000000" stroke-width="1" stroke-opacity="0"></use></g></g><g><use xlink:href="#a4cBJJZ4i" opacity="1" fill="#2f2e41" fill-opacity="1"></use><g><use xlink:href="#a4cBJJZ4i" opacity="1" fill-opacity="0" stroke="#000000" stroke-width="1" stroke-opacity="0"></use></g></g><g><use xlink:href="#b3uFSP36f7" opacity="1" fill="#ffb8b8" fill-opacity="1"></use><g><use xlink:href="#b3uFSP36f7" opacity="1" fill-opacity="0" stroke="#000000" stroke-width="1" stroke-opacity="0"></use></g></g><g><use xlink:href="#c2FDg8MHUh" opacity="1" fill="#0953ff" fill-opacity="1"></use><g><use xlink:href="#c2FDg8MHUh" opacity="1" fill-opacity="0" stroke="#000000" stroke-width="1" stroke-opacity="0"></use></g></g><g><use xlink:href="#e7FVIawF4" opacity="1" fill="#ffb8b8" fill-opacity="1"></use><g><use xlink:href="#e7FVIawF4" opacity="1" fill-opacity="0" stroke="#000000" stroke-width="1" stroke-opacity="0"></use></g></g><g><use xlink:href="#gfS0LLzgA" opacity="1" fill="#0953ff" fill-opacity="1"></use><g><use xlink:href="#gfS0LLzgA" opacity="1" fill-opacity="0" stroke="#000000" stroke-width="1" stroke-opacity="0"></use></g></g><g><use xlink:href="#b2CYkwbpfg" opacity="1" fill="#ffb8b8" fill-opacity="1"></use><g><use xlink:href="#b2CYkwbpfg" opacity="1" fill-opacity="0" stroke="#000000" stroke-width="1" stroke-opacity="0"></use></g></g><g><use xlink:href="#akQvtIaTw" opacity="1" fill="#2f2e41" fill-opacity="1"></use><g><use xlink:href="#akQvtIaTw" opacity="1" fill-opacity="0" stroke="#000000" stroke-width="1" stroke-opacity="0"></use></g></g></g></svg>